<svg width="140" height="138" viewBox="0 0 140 138" fill="none" xmlns="http://www.w3.org/2000/svg">
<path d="M18.2777 29.8436C17.7849 29.0429 17.2073 28.2974 16.5296 27.6624C16.1907 27.3403 15.8287 27.0642 15.4437 26.8157C15.0586 26.5672 14.6582 26.3647 14.2346 26.199C13.8187 26.0334 13.3875 25.9137 12.9485 25.8217C12.5095 25.7388 12.0705 25.7112 11.6316 25.702C11.1926 25.702 10.7536 25.7296 10.3223 25.7941C9.89108 25.8585 9.45981 25.9413 9.03624 26.0518C8.61267 26.1622 8.19681 26.2911 7.78864 26.4475C7.38048 26.604 7.00311 26.8525 6.62575 27.0826C5.96344 27.5059 5.27803 27.8557 4.56952 28.0581C3.861 28.2514 3.12168 28.3158 2.40547 28.141C2.05121 28.0489 1.69695 27.9109 1.3658 27.7176C1.19637 27.6164 1.03464 27.5059 0.888315 27.3771C0.811304 27.3126 0.734299 27.2482 0.664988 27.1746C0.62648 27.1378 0.595675 27.101 0.557167 27.0642L0.510962 27.0089C0.49556 26.9905 0.480158 26.9721 0.472456 26.9629L0.43395 26.9261C0.326132 26.8157 0.1567 26.8249 0.0642853 26.9537C-0.0127258 27.0642 -0.0204315 27.2206 0.0411777 27.3311C0.0642815 27.3679 0.0796909 27.3955 0.0950928 27.4231L0.141298 27.5059C0.172104 27.5611 0.210613 27.6164 0.241419 27.6624C0.31073 27.7636 0.387735 27.8649 0.464746 27.9569C0.618773 28.141 0.788202 28.3158 0.957628 28.4815C1.13476 28.638 1.31959 28.7852 1.51213 28.9141C1.70466 29.0429 1.91258 29.1534 2.12052 29.2546C2.95995 29.6504 3.8764 29.7792 4.76975 29.7056C5.66309 29.632 6.53333 29.3835 7.35737 29.0429C7.72703 28.8957 8.09669 28.7668 8.45095 28.6012C8.62808 28.5091 8.80521 28.4355 8.98234 28.3435C9.15947 28.2698 9.3366 28.1778 9.52143 28.1134C9.88338 27.9661 10.2453 27.8373 10.6073 27.736C10.7921 27.6808 10.977 27.644 11.1541 27.598C11.3389 27.5611 11.5237 27.5243 11.7086 27.5059C12.4479 27.4047 13.1949 27.4139 13.9265 27.5796C15.3975 27.8925 16.7606 28.8865 17.8927 30.221C17.9928 30.3406 18.1545 30.3406 18.2546 30.221C18.3471 30.1289 18.3471 29.9633 18.2777 29.8436Z" fill="#DAF5FE"/>
<path d="M139.95 55.6781C139.303 54.6657 138.548 53.7177 137.67 52.9262C137.231 52.5305 136.769 52.1715 136.276 51.8678C135.784 51.5641 135.268 51.3064 134.729 51.1039C134.197 50.9014 133.643 50.7542 133.088 50.6529C132.534 50.5609 131.971 50.5241 131.417 50.5241C131.14 50.5241 130.862 50.5425 130.578 50.5609L130.162 50.6069C130.023 50.6161 129.884 50.6437 129.746 50.6621C129.199 50.745 128.652 50.8646 128.113 51.0211C127.844 51.0947 127.582 51.1775 127.312 51.2604C127.05 51.3524 126.781 51.4352 126.527 51.5457C126.003 51.7482 125.518 52.0519 125.033 52.3372C124.155 52.8802 123.238 53.3128 122.283 53.5613C121.336 53.7914 120.35 53.8466 119.411 53.5889C118.941 53.46 118.479 53.2576 118.04 52.9907C117.824 52.8526 117.616 52.6961 117.416 52.5213C117.316 52.4384 117.224 52.3464 117.123 52.2452C117.077 52.1991 117.031 52.1439 116.985 52.0979L116.923 52.0243L116.869 51.9506L116.854 51.9322C116.754 51.8034 116.584 51.8034 116.477 51.923C116.384 52.0335 116.369 52.1991 116.438 52.328C116.461 52.374 116.484 52.4016 116.507 52.4384L116.569 52.5397C116.615 52.6041 116.654 52.6685 116.7 52.7329C116.792 52.8618 116.885 52.9814 116.985 53.1011C117.185 53.3312 117.401 53.5521 117.624 53.7545C117.847 53.957 118.094 54.1319 118.34 54.2884C118.463 54.3712 118.594 54.4448 118.718 54.5092C118.849 54.5829 118.979 54.6381 119.11 54.7025C120.173 55.1811 121.344 55.3192 122.468 55.2087C123.6 55.0983 124.694 54.7577 125.741 54.2976C125.98 54.1963 126.219 54.0951 126.457 54.003C126.581 53.957 126.696 53.9018 126.812 53.8558C126.927 53.8098 127.05 53.7545 127.166 53.6993C127.397 53.5889 127.636 53.4876 127.867 53.3772C128.105 53.276 128.336 53.1747 128.575 53.0827C129.053 52.8986 129.53 52.7422 130.015 52.6133C130.254 52.5489 130.501 52.4937 130.739 52.4476C130.986 52.4016 131.224 52.3556 131.471 52.3372C132.449 52.2176 133.435 52.2636 134.397 52.5029C134.875 52.6225 135.352 52.7882 135.814 53.0091C136.276 53.2299 136.723 53.4968 137.154 53.8006C137.586 54.1043 138.009 54.454 138.402 54.8314C138.795 55.2179 139.18 55.6321 139.542 56.0647C139.642 56.1843 139.804 56.1843 139.904 56.0647C140.019 55.9726 140.027 55.7977 139.95 55.6781Z" fill="#DAF5FE"/>
<path d="M89.1988 136.578C89.1988 136.578 96.1068 108.608 96.6613 102.432C97.2158 96.2659 93.3575 98.171 93.3575 98.171C93.3575 98.171 96.6074 86.4181 94.2585 83.6202C91.9096 80.8315 89.7918 86.0315 89.7918 86.0315C89.7918 86.0315 89.0833 71.7567 86.5727 71.7567C81.9057 71.7475 81.9981 87.32 81.9981 87.32C81.9981 87.32 80.8044 81.218 78.3092 82.8931C74.5433 85.4149 79.9419 97.6372 79.9419 97.6372C79.9419 97.6372 75.144 97.6372 73.4574 100.536C70.4308 105.727 89.1988 136.578 89.1988 136.578Z" fill="#3ED5FC"/>
<path d="M86.9424 132.869C86.9424 132.869 106.85 128.893 111.178 124.677C115.506 120.462 111.224 118.557 111.224 118.557C111.224 118.557 121.228 112.427 121.113 108.267C120.997 104.098 116.03 106.215 116.03 106.215C116.03 106.215 124.455 94.7289 122.461 92.5476C118.749 88.4889 109.007 100.426 109.007 100.426C109.007 100.426 111.902 94.7473 108.852 93.8545C104.255 92.5016 100.866 106.5 100.866 106.5C100.866 106.5 101.729 100.969 98.5636 101.705C92.8724 103.031 86.9424 132.869 86.9424 132.869Z" fill="#013D5D"/>
<path d="M98.5561 101.705C101.729 101.015 100.859 106.5 100.859 106.5C100.859 106.5 104.247 92.5016 108.845 93.8545C111.895 94.7565 108.999 100.426 108.999 100.426C108.999 100.426 118.741 88.4889 122.453 92.5476L87.0043 132.869C87.6435 129.031 93.2346 102.856 98.5561 101.705Z" fill="#3190C1"/>
<path d="M81.7749 117.857C81.7749 117.857 66.6496 113.293 63.5383 109.712C60.427 106.141 63.831 105 63.831 105C63.831 105 56.4532 99.524 56.7612 96.3303C57.0693 93.1275 60.789 95.1339 60.789 95.1339C60.789 95.1339 54.9052 85.6542 56.561 84.1264C59.6415 81.2824 66.511 91.2039 66.511 91.2039C66.511 91.2039 64.5857 86.6113 66.9808 86.1511C70.5927 85.4517 72.4641 96.496 72.4641 96.496C72.4641 96.496 72.0944 92.1703 74.4972 92.9802C78.7868 94.4252 81.7749 117.857 81.7749 117.857Z" fill="#3190C1"/>
<path d="M81.2822 136.154C81.2822 136.154 91.7636 123.417 97.0466 122.082C102.33 120.757 101.375 125.248 101.375 125.248C101.375 125.248 111.848 114.305 114.274 116.956C116.7 119.606 114.074 122.165 114.074 122.165C114.074 122.165 122.8 120.315 124.047 123.739C125.965 128.994 111.617 131.856 111.617 131.856C111.617 131.856 117.632 132.353 116.238 135.648C114.136 140.627 81.2822 136.154 81.2822 136.154Z" fill="#013D5D"/>
<path d="M124.055 123.739C122.808 120.315 114.082 122.165 114.082 122.165C114.082 122.165 116.708 119.606 114.282 116.956C111.856 114.305 101.706 123.757 101.706 123.757C101.706 123.757 104.101 118.29 98.8182 119.615C93.5351 120.941 81.2824 136.154 81.2824 136.154L124.055 123.739Z" fill="#3ED5FC"/>
<path d="M39.0022 136.992H91.725C93.735 136.992 95.3677 134.967 95.3677 132.473V129.785C95.3677 127.291 93.735 125.266 91.725 125.266H39.0022C41.4127 128.534 41.4589 133.531 39.1023 136.854L39.0022 136.992Z" fill="#FF61A4"/>
<path d="M39.8188 126.601H69.0604C71.0705 126.601 72.7031 128.626 72.7031 131.12C72.7031 133.614 71.0705 135.639 69.0604 135.639H39.8188C41.1819 132.869 41.1819 129.371 39.8188 126.601Z" fill="#DFF0F4"/>
<path d="M57.5239 117.121C57.4469 116.946 57.5624 116.753 57.7395 116.753H85.6412C87.8283 116.753 89.5996 118.658 89.5996 121.014C89.5996 123.37 87.8283 125.276 85.6412 125.276H57.7395C57.5624 125.276 57.4469 125.073 57.5239 124.907C58.6252 122.432 58.6175 119.569 57.5239 117.121Z" fill="#013D5D"/>
<path d="M57.7009 117.535H71.5246C74.0891 117.535 76.1685 119.137 76.1685 121.106C76.1685 123.076 74.0891 124.677 71.5246 124.677H57.6084C58.5634 122.404 58.5865 119.818 57.7009 117.535Z" fill="#DFF0F4"/>
<path d="M61.2744 119.229H63.0765C63.4616 119.229 63.7773 119.385 63.7773 119.579V119.606H61.2744V119.229Z" fill="#FF61A4"/>
<path d="M59.7345 120.103C59.7345 119.625 60.2043 119.229 60.7819 119.229H63.0923C62.6533 119.229 62.2991 119.523 62.2991 119.891L62.3067 129.224L61.0283 128.027L59.7268 129.224L59.7345 120.103Z" fill="#FF9AC5"/>
<path d="M62.653 116.44H78.8872C80.3273 116.44 81.4902 114.784 81.4902 112.74C81.4902 110.697 80.3196 109.04 78.8872 109.04H62.653C63.8929 111.093 63.9391 114.093 62.7685 116.228L62.653 116.44Z" fill="#DFF0F4"/>
<path d="M81.4902 112.74C81.4902 110.697 80.2965 109.04 78.8256 109.04H62.3449C62.2679 109.04 62.2063 108.958 62.2063 108.847C62.2063 108.746 62.2679 108.654 62.3449 108.654H88.4829C90.1079 108.654 91.4248 110.476 91.4248 112.731C91.4248 114.986 90.1079 116.808 88.4829 116.808H62.3449C62.2679 116.808 62.2063 116.725 62.2063 116.615C62.2063 116.505 62.2679 116.422 62.3449 116.422H78.8256C80.2965 116.44 81.4902 114.784 81.4902 112.74Z" fill="#3190C1"/>
<path d="M65.4873 110.863H67.2894C67.6745 110.863 67.9902 111.019 67.9902 111.203V111.231H65.4873V110.863Z" fill="#013D5D"/>
<path d="M63.9543 111.719C63.9543 111.249 64.424 110.863 65.0016 110.863H67.312C66.873 110.863 66.5188 111.148 66.5188 111.507L66.5265 120.655L65.2481 119.477L63.9466 120.655L63.9543 111.719Z" fill="#3190C1"/>
<path d="M52.934 100.739H92.3028C93.5889 100.739 94.6362 101.991 94.6362 103.528V105.874C94.6362 107.411 93.5889 108.663 92.3028 108.663H52.934L52.9571 108.636C54.7361 106.427 54.7207 102.929 52.934 100.739Z" fill="#FF9AC5"/>
<path d="M53.6733 101.908H75.876C77.1621 101.908 78.2095 103.159 78.2095 104.696C78.2095 106.233 77.1621 107.485 75.876 107.485H53.6733C54.4896 105.764 54.4896 103.638 53.6733 101.908Z" fill="#EEFBFF"/>
<path d="M68.6983 36.9764C71.9097 33.8656 80.3272 38.1637 81.5825 40.1701C82.8147 42.1396 85.3176 62.9582 83.477 64.4031C81.6364 65.8389 75.9298 68.7564 73.5578 66.1886C71.1935 63.6116 68.6983 36.9764 68.6983 36.9764Z" fill="#FF61A4"/>
<path d="M66.9043 36.3966C66.9043 36.3966 61.4441 33.0649 60.7048 31.4082C59.9655 29.7516 56.8773 24.1742 56.8773 24.1742C56.8773 24.1742 55.2985 24.4135 54.8826 25.2602C55.3986 27.5611 56.9697 33.9208 59.0028 35.7983C61.0359 37.6759 66.3883 41.5414 66.3883 41.5414L66.9043 36.3966Z" fill="#FFA283"/>
<path d="M55.4444 27.3402C56.2145 27.0825 57.1925 26.5855 57.9088 26.199C57.6007 25.702 57.3851 25.3246 57.3389 25.1498C57.1232 24.3215 58.4941 21.0818 58.2707 20.8149C58.0474 20.548 57.2079 22.2322 57.0693 22.0758C56.9307 21.9101 56.7305 18.2103 56.2761 18.2195C55.814 18.2287 56.2761 21.3671 55.9911 21.3671C55.6985 21.3763 55.1979 17.6397 54.7435 18.0262C54.2892 18.4128 55.375 21.3027 55.0747 21.4499C54.7743 21.6064 53.8964 18.8637 53.573 18.8729C53.2495 18.8821 53.4959 19.4896 53.727 20.2075C53.958 20.9345 54.3508 21.9193 54.1659 21.9285C53.9811 21.9285 53.0647 20.2075 52.7412 20.3363C52.4178 20.4652 54.99 25.4627 55.2056 26.5671C55.2287 26.696 55.3134 26.9629 55.4444 27.3402Z" fill="#FFA283"/>
<path d="M65.6951 76.377C65.6951 76.377 65.5257 80.4449 65.5257 82.9299C65.5257 85.4149 68.7217 95.1431 68.4368 96.5328C68.1442 97.9225 71.448 97.7385 71.448 97.7385C71.448 97.7385 71.6713 90.1823 70.8242 86.6021C69.9693 83.0311 70.8242 75.6775 70.8242 75.6775L65.6951 76.377Z" fill="#FFA283"/>
<path d="M73.7196 74.4166C73.7196 74.4166 74.79 81.1444 75.668 82.6814C76.5382 84.2184 81.236 94.7013 81.236 96.0358C81.236 97.3795 84.1855 96.2843 84.1855 96.2843C84.1855 96.2843 81.6903 84.8166 80.6969 81.3377C79.7034 77.8587 79.3261 74.978 79.3261 74.978L73.7196 74.4166Z" fill="#FFA283"/>
<path d="M64.6939 65.5351C64.355 67.9925 61.3592 80.7211 61.3592 80.7211C65.9646 82.2212 79.1876 83.1876 84.1318 79.3773C84.1318 79.3773 79.9809 61.8997 77.8091 59.3043L75.5449 60.1234L66.057 58.6601C66.0493 58.6601 64.9326 63.7865 64.6939 65.5351Z" fill="#013D5D"/>
<path d="M63.4078 100.803H72.4876C72.4876 100.803 72.6724 96.8825 72.0486 96.1371C71.4248 95.3916 71.5942 96.2291 70.5546 96.7077C69.5149 97.1863 68.8372 96.0358 68.3674 95.4744C67.8899 94.9038 68.2288 97.2875 66.2342 97.2875C64.2395 97.2875 62.9534 99.708 63.4078 100.803Z" fill="#FE544E"/>
<path d="M81.136 95.6032C80.6662 95.7321 79.1876 97.177 78.7024 98.7324C78.2095 100.288 78.3558 100.849 78.3558 100.849C78.3558 100.849 79.8576 101.65 82.7379 101.392C85.6181 101.144 85.1792 100.766 85.1792 100.766C85.1792 100.766 84.9712 97.2231 84.4861 96.1462C83.9932 95.0694 81.96 95.3823 81.136 95.6032Z" fill="#FE544E"/>
<path d="M83.7389 46.3824C83.7389 46.3824 87.1582 52.1439 88.5829 52.7513C90.0077 53.368 94.8826 56.1106 94.8826 56.1106C94.8826 56.1106 94.9134 57.9422 94.2973 58.5312C92.3951 58.2643 87.0966 57.3531 85.3176 55.3007C83.5386 53.2483 79.7111 47.6894 79.7111 47.6894L83.7389 46.3824Z" fill="#FFA283"/>
<path d="M92.5569 58.1815C92.657 57.2611 92.9112 56.083 93.1268 55.2179C93.5658 55.5032 93.8969 55.6965 94.0433 55.7241C94.7364 55.8529 97.1238 53.8374 97.3702 54.0583C97.6166 54.2791 96.3844 55.4664 96.5385 55.6045C96.6848 55.7425 99.6652 55.448 99.7191 55.9726C99.773 56.4972 97.2085 56.4052 97.247 56.7365C97.2778 57.0678 100.327 57.123 100.089 57.6937C99.8423 58.2643 97.3856 57.4268 97.3086 57.7949C97.2316 58.163 99.5342 58.7797 99.5727 59.1478C99.6113 59.516 99.0953 59.3227 98.4869 59.157C97.8785 58.9914 97.0313 58.6877 97.0544 58.8993C97.0775 59.111 98.5793 59.9117 98.5177 60.2983C98.4561 60.6848 94.1126 58.4484 93.2038 58.3471C93.096 58.3379 92.8727 58.2735 92.5569 58.1815Z" fill="#FFA283"/>
<path d="M86.2339 49.0791C86.2339 49.0791 84.3009 52.6777 82.3294 52.7606C81.4129 51.3616 79.8726 49.9443 79.8572 50.202C79.8418 50.4873 78.1476 55.1535 77.8087 59.3043C75.2057 61.1082 66.0566 60.5652 66.0489 58.66C66.0412 57.2059 67.6046 44.9375 65.9103 43.3545C65.2942 42.7747 60.658 38.6054 60.658 38.6054C60.658 38.6054 62.0134 34.5375 63.3612 32.936C63.3612 32.936 66.2106 34.3074 68.7212 35.513C72.0174 37.0961 74.6974 37.8692 76.5457 38.8447C82.1522 41.8359 83.8927 44.3393 86.2339 49.0791Z" fill="#EEFBFF"/>
<path d="M76.7616 38.9644C75.0442 45.0847 75.9606 55.991 78.3865 59.2399C79.0874 57.2151 77.7165 51.0855 79.7112 40.6854C79.7651 40.1516 76.931 38.4029 76.7616 38.9644Z" fill="#FF61A4"/>
<path d="M72.133 36.8936C69.6532 40.1148 66.5111 53.1839 66.4341 53.7822C66.5419 43.3361 69.3066 37.2617 69.8611 36.0561C70.2308 35.7523 72.1792 36.5807 72.133 36.8936Z" fill="#FF61A4"/>
<path d="M72.1327 34.4454C72.2406 36.3322 71.7939 37.8876 71.532 38.5042C71.532 38.5042 73.1493 40.4001 75.8448 39.2957C75.7061 37.6114 75.8525 35.7155 76.2529 33.6171L72.1327 34.4454Z" fill="#FFA283"/>
<path opacity="0.68" d="M72.0255 36.6727C72.1256 36.0284 72.1873 35.2645 72.141 34.4454L76.2612 33.6171C76.1611 34.1417 76.0764 34.6571 76.0071 35.1633C74.7056 36.2953 73.2577 36.8936 72.0255 36.6727Z" fill="#FF7F4C"/>
<path d="M71.9097 24.6528C70.4234 26.291 68.3209 31.804 70.0768 34.3626C72.3102 37.6022 76.284 35.513 78.6945 31.3162C81.1127 27.1286 74.2047 22.131 71.9097 24.6528Z" fill="#FFA283"/>
<path d="M76.4461 26.8156C76.4461 26.8156 78.1788 26.8801 77.4934 28.822C76.8157 30.764 75.5835 31.4174 76.2381 32.2089C76.6925 32.7427 76.3074 33.9024 76.0995 34.5375C75.9917 34.8688 76.4692 34.1693 77.1161 34.1049C78.7025 33.9392 79.8654 33.3686 80.3506 31.1413C80.3506 31.1413 81.7676 28.8128 81.4134 26.0978C81.1515 24.1006 79.7961 23.8061 79.7961 23.8061C79.7961 23.8061 79.4187 22.8949 77.6475 21.8825C75.1446 20.4468 71.394 19.462 71.394 22.223C71.4017 23.9257 70.7779 26.4475 76.4461 26.8156Z" fill="#FE544E"/>
<path d="M78.4404 25.0578C80.8894 20.6032 85.7412 22.6648 86.234 25.8585C86.6499 28.5735 88.529 29.816 91.648 29.9633C95.876 30.175 94.4821 37.3722 92.0177 37.7863C94.7516 43.3085 85.4177 46.723 85.695 41.2837C82.2756 40.5474 80.6583 38.2925 81.3515 35.3474C82.0446 32.4022 82.3988 24.8277 80.0499 26.1898C77.6086 27.101 78.4404 25.0578 78.4404 25.0578Z" fill="#FE544E"/>
<path d="M75.9606 30.6812C76.0838 30.6075 77.7472 29.7332 78.2632 30.7916C78.6791 31.6567 77.8782 33.4975 76.6306 33.4975C75.3753 33.4975 74.3818 31.6476 75.9606 30.6812Z" fill="#FFA283"/>
<path d="M72.4874 100.803C72.4874 100.803 72.5259 99.9842 72.5105 99.027C71.4477 99.5792 65.6025 99.4872 63.4846 99.4411C63.2998 99.9473 63.2613 100.444 63.4153 100.803H72.4874Z" fill="#EEFBFF"/>
<path d="M82.7301 101.392C85.6103 101.144 85.1714 100.766 85.1714 100.766C85.1714 100.766 85.1251 99.9473 85.0173 98.981C83.0073 101.125 79.8729 100.03 78.5021 99.3951C78.2402 100.454 78.3403 100.849 78.3403 100.849C78.3403 100.849 79.8498 101.65 82.7301 101.392Z" fill="#EEFBFF"/>
<path d="M65.1318 4.18399C64.1923 4.27602 62.0667 5.28842 59.9643 5.5093C58.7321 5.63815 58.2315 4.94788 57.1379 4.27602C51.9396 1.09158 52.5788 3.31885 51.9396 2.96912C51.8472 3.54894 51.1926 8.56489 51.0385 9.55888C50.8922 10.4792 51.1618 11.1511 51.8703 11.5653C52.9562 12.2003 54.0266 12.8906 55.151 13.4244C58.0236 14.7957 60.2723 14.4276 63.0987 14.0594C63.8457 13.9582 64.3078 13.452 64.4464 12.5684C65.0933 8.47285 65.0933 4.57054 65.1318 4.18399Z" fill="#013D5D"/>
<path d="M48.8287 7.11998C48.1433 8.39008 47.92 8.57414 48.4745 8.74901C48.8133 8.85025 49.1599 8.91468 49.4987 8.9607C49.7452 8.99751 49.8299 8.85025 49.7837 8.55574C49.7144 8.12317 49.6374 7.6998 49.5604 7.27644C49.9916 6.90829 50.1379 6.19962 49.9069 5.61979C49.8607 5.50014 49.853 5.66582 50.2227 3.28209C52.6178 4.74546 54.3043 5.78546 57.2308 7.57096C58.0163 8.04955 58.8481 8.23362 59.7183 8.12317C62.7372 7.75503 65.7561 7.37769 68.775 7.00954C69.1832 6.95432 69.4373 6.60458 69.3911 6.1352C69.3603 5.78546 69.1523 5.60139 68.9136 5.45413C68.2436 5.04917 61.6975 1.06402 61.0352 0.659062C60.165 0.11605 59.2485 -0.0864339 58.2782 0.0332128C55.3132 0.401357 52.3405 0.751098 49.3755 1.11924C48.9674 1.16526 48.7594 1.34932 48.6901 1.70826C48.6131 2.10402 48.744 2.43535 49.1214 2.61942C49.3986 2.74827 49.4525 2.92314 49.3832 3.25447C49.0752 4.75466 49.1907 5.22404 48.8518 5.59219C48.6054 5.8775 48.6131 6.73343 48.8287 7.11998Z" fill="#3190C1"/>
</svg>
