<?xml version="1.0" standalone="no"?>
<!DOCTYPE svg PUBLIC "-//W3C//DTD SVG 20010904//EN"
 "http://www.w3.org/TR/2001/REC-SVG-20010904/DTD/svg10.dtd">
<svg version="1.0" xmlns="http://www.w3.org/2000/svg"
 width="566.000000pt" height="441.000000pt" viewBox="0 0 566.000000 441.000000"
 preserveAspectRatio="xMidYMid meet">

<g transform="translate(0.000000,441.000000) scale(0.100000,-0.100000)"
fill="#000000" stroke="none">
<path d="M3048 3593 c6 -2 18 -2 25 0 6 3 1 5 -13 5 -14 0 -19 -2 -12 -5z"/>
<path d="M3125 3478 c-16 -23 -16 -23 -30 -4 -14 19 -15 19 -15 2 0 -15 -3
-16 -14 -7 -11 9 -15 7 -20 -11 -6 -23 -7 -23 -21 -4 -8 11 -15 15 -15 10 0
-6 6 -16 13 -23 10 -11 9 -14 -1 -18 -6 -3 -10 -9 -6 -14 3 -5 -3 -9 -13 -9
-14 0 -15 -2 -4 -9 7 -5 10 -14 7 -20 -4 -6 0 -11 9 -11 8 0 18 7 21 15 4 8
10 15 16 15 5 0 6 -4 3 -10 -3 -5 -2 -10 4 -10 18 0 22 18 7 33 -9 9 -11 19
-5 28 7 11 9 11 9 1 0 -17 40 -5 57 17 8 10 12 12 13 4 0 -18 20 -16 42 4 17
15 18 15 18 -8 0 -22 1 -22 17 -7 15 16 17 16 30 0 8 -11 15 -13 20 -7 5 6 14
10 21 9 6 -1 21 -2 32 -3 14 -1 18 -6 13 -17 -5 -14 -2 -16 19 -11 22 6 25 4
23 -17 -2 -18 1 -23 11 -19 8 3 14 0 14 -7 0 -6 4 -9 9 -6 12 8 19 -13 13 -36
-4 -15 -6 -15 -38 0 -24 12 -34 24 -34 41 0 21 -3 23 -30 18 -23 -5 -30 -3
-30 9 0 11 -6 13 -20 9 -13 -4 -22 -1 -25 8 -5 10 -17 12 -48 7 -24 -3 -48
-10 -55 -14 -7 -4 -19 -3 -26 3 -10 8 -16 8 -25 -3 -7 -8 -8 -17 -3 -20 11 -7
80 -1 105 9 12 5 17 2 17 -9 0 -10 6 -13 15 -10 9 4 15 0 15 -10 0 -9 5 -16
10 -16 6 0 10 5 10 10 0 6 5 10 11 10 5 0 7 -5 3 -11 -4 -7 0 -9 14 -5 14 5
21 1 25 -14 3 -12 13 -20 27 -20 16 0 20 -4 16 -15 -3 -8 -2 -15 3 -15 4 0 8
-19 9 -42 1 -24 7 -45 12 -46 6 -2 8 -8 4 -13 -3 -5 4 -9 14 -9 11 0 26 -10
34 -22 l15 -23 7 33 c4 17 12 32 17 32 5 0 9 11 9 24 0 13 6 26 13 29 9 3 8
12 -4 35 -12 22 -14 33 -6 41 8 8 6 11 -8 11 -15 0 -16 3 -7 12 18 18 15 27
-8 21 -15 -4 -20 0 -20 16 0 12 -4 19 -10 16 -5 -3 -10 1 -10 10 0 9 -4 13
-10 10 -5 -3 -10 -1 -10 6 0 6 -8 9 -20 6 -17 -4 -20 -2 -15 12 4 15 1 17 -20
13 -19 -3 -25 0 -25 13 0 15 -3 15 -15 5 -13 -11 -18 -10 -30 6 -14 18 -14 18
-15 -3 l0 -23 -20 20 c-24 24 -33 25 -50 5 -7 -8 -16 -15 -21 -15 -5 0 -9 7
-9 15 0 22 -16 18 -35 -7z"/>
<path d="M4078 3423 c7 -3 16 -2 19 1 4 3 -2 6 -13 5 -11 0 -14 -3 -6 -6z"/>
<path d="M4579 3403 c-13 -16 -12 -17 4 -4 9 7 17 15 17 17 0 8 -8 3 -21 -13z"/>
<path d="M3999 3373 c-13 -16 -12 -17 4 -4 16 13 21 21 13 21 -2 0 -10 -8 -17
-17z"/>
<path d="M3165 3324 c-20 -20 -11 -32 10 -14 13 11 20 9 40 -10 14 -13 28 -20
32 -16 8 8 -41 56 -57 56 -5 0 -16 -7 -25 -16z"/>
<path d="M4673 3333 c-13 -2 -23 -8 -23 -12 0 -4 -20 -22 -45 -41 -25 -19 -45
-39 -45 -45 0 -27 -23 -34 -54 -18 -18 9 -71 19 -126 23 l-96 6 -39 42 c-38
39 -43 41 -88 37 -36 -3 -54 -11 -78 -34 -17 -17 -28 -35 -24 -41 3 -5 -6 -27
-20 -48 -27 -41 -30 -85 -8 -127 6 -11 8 -26 6 -32 -3 -7 5 -26 16 -42 17 -23
31 -31 72 -36 69 -10 82 4 82 84 -1 38 4 64 12 71 11 9 12 7 8 -11 -5 -19 -3
-20 18 -14 13 4 29 15 36 24 11 14 12 14 13 -2 0 -16 5 -18 43 -12 24 4 49 16
58 27 l16 21 6 -22 c4 -17 13 -21 46 -21 36 0 41 3 41 23 1 18 3 17 15 -10 15
-36 30 -45 22 -13 -3 11 -2 20 3 20 4 0 17 -35 30 -79 l22 -79 27 14 c17 9 42
12 71 9 38 -5 51 -2 80 20 18 14 43 25 53 25 29 0 66 45 68 83 4 56 -1 87 -14
87 -7 0 -18 9 -25 20 -7 11 -19 20 -27 20 -8 0 -14 3 -13 8 5 18 -25 51 -52
57 -16 4 -32 11 -35 16 -6 9 -13 10 -52 2z m-63 -183 c-10 -6 -22 -1 -39 16
-20 21 -22 27 -11 34 10 6 22 1 39 -16 20 -21 22 -27 11 -34z m-409 21 c-24
-24 -31 -26 -31 -8 0 11 40 36 48 31 2 -1 -6 -12 -17 -23z"/>
<path d="M3007 3323 c-4 -3 -7 -13 -7 -22 0 -11 3 -12 12 -3 7 7 17 8 30 1 20
-11 24 1 6 19 -13 13 -31 16 -41 5z"/>
<path d="M2029 3183 c-13 -16 -12 -17 4 -4 9 7 17 15 17 17 0 8 -8 3 -21 -13z"/>
<path d="M1949 3133 c-13 -16 -12 -17 4 -4 9 7 17 15 17 17 0 8 -8 3 -21 -13z"/>
<path d="M2145 3141 c4 -8 2 -17 -6 -22 -7 -4 -10 -11 -6 -16 10 -10 157 -18
157 -8 0 3 -5 15 -11 26 -8 16 -19 20 -57 18 -26 -1 -56 2 -66 6 -14 6 -17 5
-11 -4z"/>
<path d="M2052 3069 c-30 -11 -23 -35 9 -31 13 1 47 4 74 5 28 2 58 7 68 11
10 5 23 3 32 -4 8 -7 15 -9 15 -5 0 5 9 -2 19 -14 11 -13 25 -20 32 -16 6 4
15 1 20 -6 7 -12 10 -12 18 -1 7 11 9 10 15 -3 3 -9 10 -14 15 -11 5 3 12 -2
16 -12 6 -16 7 -16 17 1 12 22 16 18 -52 49 -95 44 -238 62 -298 37z"/>
<path d="M3000 3076 c0 -2 8 -10 18 -17 15 -13 16 -12 3 4 -13 16 -21 21 -21
13z"/>
<path d="M3270 3020 c-17 -11 -17 -9 -19 -101 l-1 -70 -52 3 c-59 3 -55 -6
-43 101 10 86 -11 71 -26 -18 -7 -44 -16 -74 -23 -73 -16 3 -56 -12 -56 -21 0
-4 11 -18 24 -30 22 -21 27 -22 66 -10 36 11 46 10 75 -6 30 -16 40 -16 79 -5
43 12 44 13 34 41 -8 23 -15 28 -29 24 -18 -6 -19 0 -19 78 0 59 4 87 13 90 6
3 8 6 2 6 -5 0 -17 -4 -25 -9z"/>
<path d="M2066 3011 c-4 -7 -5 -15 -2 -18 9 -9 19 4 14 18 -4 11 -6 11 -12 0z"/>
<path d="M2230 2994 c0 -8 5 -12 10 -9 6 4 8 11 5 16 -9 14 -15 11 -15 -7z"/>
<path d="M2425 2945 c9 -71 10 -73 39 -68 38 8 33 42 -10 84 l-36 34 7 -50z"/>
<path d="M2456 2861 c-3 -5 1 -14 9 -21 10 -9 15 -9 15 -1 0 6 -6 11 -12 11
-9 0 -8 4 2 10 9 6 10 10 3 10 -6 0 -14 -4 -17 -9z"/>
<path d="M4352 2838 c-20 -20 -14 -29 21 -26 20 2 32 8 32 18 0 19 -36 25 -53
8z"/>
<path d="M966 2817 c3 -10 9 -15 12 -12 3 3 0 11 -7 18 -10 9 -11 8 -5 -6z"/>
<path d="M1295 2786 c-18 -13 -18 -14 3 -25 17 -9 27 -9 44 0 21 11 21 12 3
25 -10 8 -22 14 -25 14 -3 0 -15 -6 -25 -14z"/>
<path d="M3444 2753 c1 -41 4 -48 21 -48 26 0 32 38 11 71 -24 36 -33 30 -32
-23z"/>
<path d="M2895 2753 c9 -49 22 -73 40 -73 18 0 9 68 -13 93 -25 28 -35 20 -27
-20z"/>
<path d="M4450 2783 c-14 -3 -29 -11 -33 -19 -7 -12 -12 -11 -33 3 -29 19 -35
14 -59 -51 -10 -27 -34 -67 -53 -88 l-35 -39 24 -25 c19 -21 24 -22 31 -9 10
17 34 20 43 5 4 -6 2 -17 -4 -24 -9 -11 1 -17 50 -31 47 -13 63 -14 69 -5 4 7
16 9 29 5 21 -6 21 -4 21 117 0 120 -6 169 -19 167 -3 -1 -17 -4 -31 -6z"/>
<path d="M1570 2769 c0 -5 5 -7 10 -4 6 3 10 8 10 11 0 2 -4 4 -10 4 -5 0 -10
-5 -10 -11z"/>
<path d="M2781 2754 c0 -11 3 -14 6 -6 3 7 2 16 -1 19 -3 4 -6 -2 -5 -13z"/>
<path d="M2344 2747 c-12 -7 -19 -18 -17 -24 8 -21 -28 -28 -43 -9 -11 16 -14
16 -43 1 -37 -19 -38 -25 -7 -57 26 -29 42 -103 26 -123 -8 -9 -4 -17 14 -29
31 -20 35 -20 57 0 14 12 22 13 39 4 16 -8 30 -8 55 0 31 10 35 15 35 48 0 20
-10 61 -22 90 -18 42 -20 55 -9 61 10 7 10 12 0 30 -15 24 -52 27 -85 8z"/>
<path d="M2045 2711 c-3 -5 -2 -12 3 -15 5 -3 9 1 9 9 0 17 -3 19 -12 6z"/>
<path d="M2077 2539 c7 -7 15 -10 18 -7 3 3 -2 9 -12 12 -14 6 -15 5 -6 -5z"/>
<path d="M4898 2543 c6 -2 18 -2 25 0 6 3 1 5 -13 5 -14 0 -19 -2 -12 -5z"/>
<path d="M2550 2506 c0 -35 21 -87 34 -83 13 4 20 50 12 83 -9 33 -46 33 -46
0z"/>
<path d="M2868 2523 c6 -2 18 -2 25 0 6 3 1 5 -13 5 -14 0 -19 -2 -12 -5z"/>
<path d="M473 2501 c-151 -52 -256 -218 -279 -441 -16 -164 45 -330 163 -440
39 -37 94 -76 132 -94 63 -29 72 -31 186 -31 86 1 137 6 180 19 187 56 281
150 293 293 5 63 4 65 -28 95 l-34 30 24 18 c21 16 22 22 18 98 -7 117 -45
191 -157 303 -63 63 -103 94 -151 116 -117 55 -249 68 -347 34z m242 -26 c176
-46 307 -186 335 -357 8 -53 7 -98 -4 -98 0 0 -73 -14 -161 -30 -88 -17 -190
-33 -227 -36 -66 -7 -68 -8 -68 -35 0 -67 108 -94 158 -41 25 26 36 30 148 42
67 7 133 10 148 6 24 -6 26 -11 26 -59 0 -63 -36 -144 -82 -182 -111 -94 -353
-143 -493 -100 -112 33 -202 127 -246 255 -34 98 -32 257 5 364 50 146 136
243 245 277 44 13 154 10 216 -6z"/>
<path d="M495 2343 c-45 -23 -66 -45 -81 -80 -37 -86 66 -142 173 -94 51 24
78 62 78 114 0 29 -6 44 -24 58 -29 24 -104 25 -146 2z m140 -63 c11 -18 -26
-71 -60 -86 -47 -19 -95 -19 -95 2 0 44 134 117 155 84z"/>
<path d="M5060 2496 c0 -2 8 -10 18 -17 15 -13 16 -12 3 4 -13 16 -21 21 -21
13z"/>
<path d="M1176 2482 c-3 -5 1 -9 9 -9 8 0 15 4 15 9 0 4 -4 8 -9 8 -6 0 -12
-4 -15 -8z"/>
<path d="M1180 2446 c0 -8 4 -17 9 -20 5 -4 7 3 4 14 -6 23 -13 26 -13 6z"/>
<path d="M4694 2421 l-31 -19 -7 -139 c-3 -76 -7 -189 -8 -250 -1 -62 -3 -113
-5 -113 -1 0 -11 19 -22 43 -10 23 -42 65 -70 94 l-52 51 55 72 56 72 -50 48
c-130 126 -320 151 -483 66 -82 -42 -119 -90 -125 -160 -6 -75 2 -100 49 -151
l40 -43 -43 -21 c-24 -11 -63 -41 -87 -65 -42 -43 -43 -46 -32 -74 7 -16 28
-47 47 -67 19 -21 34 -41 34 -44 0 -4 24 -12 53 -19 86 -19 219 -61 234 -74 8
-6 18 -19 24 -29 9 -17 6 -17 -33 1 -24 11 -59 20 -79 20 -38 0 -146 -33 -163
-50 -6 -6 4 -6 23 1 26 9 49 9 103 -1 66 -12 69 -13 66 -39 -2 -18 -10 -27
-25 -29 -26 -4 -32 -22 -8 -22 29 0 75 -30 75 -49 0 -33 -33 -48 -130 -60 -82
-10 -132 -9 -367 10 -262 22 -272 24 -256 41 9 10 13 21 10 25 -4 3 -7 1 -7
-5 0 -6 -9 -14 -20 -17 -11 -3 -20 -12 -20 -19 0 -9 75 -18 283 -35 246 -20
296 -21 383 -11 77 9 103 16 117 32 25 30 21 53 -15 82 -18 14 -27 26 -20 26
7 0 12 14 12 34 0 33 -3 35 -42 44 l-43 10 50 0 c28 1 67 -5 88 -12 20 -8 37
-10 37 -6 0 4 34 10 75 12 127 8 225 74 260 174 l14 39 1 -41 c0 -67 11 -103
31 -109 11 -4 19 -13 19 -21 0 -33 64 -45 198 -39 140 7 172 17 172 51 0 21 2
22 24 13 14 -7 22 -17 20 -24 -3 -8 12 -19 39 -30 38 -14 61 -15 157 -8 l113
8 23 60 c30 79 38 164 25 248 -17 102 -51 169 -128 249 -78 81 -145 118 -214
118 -46 0 -46 0 -53 40 -6 39 -51 96 -95 120 -11 5 -71 10 -133 10 -93 0 -118
-3 -144 -19z m278 -28 c14 -13 18 -31 18 -87 l0 -71 99 0 c94 0 101 -2 142
-30 56 -40 102 -100 130 -172 30 -79 33 -234 5 -310 l-19 -51 -108 -7 c-139
-9 -145 -7 -141 49 5 56 -19 106 -52 106 -36 0 -59 -34 -64 -94 l-4 -53 -132
-7 c-72 -4 -139 -4 -148 -1 -22 9 -26 120 -16 465 7 222 10 257 25 268 11 8
55 12 132 12 92 0 118 -3 133 -17z"/>
<path d="M3505 2421 c-87 -15 -143 -66 -130 -118 3 -16 20 -42 36 -59 l30 -31
-36 -6 c-67 -11 -65 -4 -65 -276 l0 -247 51 -48 c41 -39 52 -56 57 -90 3 -25
14 -50 30 -66 25 -24 22 -11 -4 20 -20 24 -20 82 1 113 38 58 143 84 223 56
27 -9 39 -7 75 10 23 11 67 25 97 30 45 7 48 9 20 10 l-35 1 0 195 0 194 -33
31 -33 30 27 23 c43 37 36 79 -23 139 -70 71 -184 106 -288 89z m128 -36 c198
-42 170 -166 -38 -168 -192 -1 -268 138 -94 172 61 12 56 12 132 -4z m78 -221
l57 -6 9 -74 c8 -67 -1 -358 -12 -392 -4 -11 -24 -12 -94 -7 -73 6 -97 4 -135
-10 -50 -19 -125 -17 -151 5 -13 10 -15 51 -15 250 0 219 1 239 18 244 19 6
236 -1 323 -10z"/>
<path d="M2080 2409 c0 -17 75 -89 93 -89 8 0 18 7 21 16 6 15 -1 22 -63 71
-20 16 -51 17 -51 2z"/>
<path d="M2830 2402 c-21 -17 -22 -23 -22 -227 0 -116 -5 -276 -11 -357 l-11
-147 44 -43 43 -43 199 1 c164 0 201 3 214 15 24 24 44 246 44 487 l0 212 -41
40 c-44 43 -31 40 -265 65 -174 19 -167 19 -194 -3z m187 -26 c59 -8 134 -17
165 -21 32 -4 60 -10 63 -15 3 -5 6 -100 6 -212 1 -188 -15 -422 -31 -448 -9
-14 -244 -25 -334 -15 l-69 7 8 61 c4 34 9 192 10 351 3 307 3 306 52 306 12
0 71 -6 130 -14z"/>
<path d="M1474 2374 c-18 -15 -18 -15 2 -5 12 6 25 7 29 3 5 -4 5 -1 1 6 -9
15 -8 15 -32 -4z"/>
<path d="M1335 2324 c-66 -7 -123 -12 -127 -13 -19 -3 -30 -100 -43 -359 -8
-169 -10 -292 -5 -305 5 -12 26 -39 48 -60 l39 -37 173 12 c145 10 175 15 190
30 15 17 18 17 30 3 10 -12 39 -15 155 -15 193 0 189 -4 193 161 4 138 -10
257 -39 335 -24 63 -94 144 -155 180 -51 30 -140 42 -197 26 -35 -10 -39 -8
-65 18 -34 37 -50 39 -197 24z"/>
<path d="M2395 2333 c-33 -5 -65 -29 -65 -48 0 -8 -25 -14 -74 -17 -135 -9
-230 -88 -256 -213 -20 -96 8 -181 84 -254 l36 -35 -53 -25 c-41 -21 -53 -32
-55 -53 -8 -71 96 -206 197 -255 49 -24 70 -28 168 -32 138 -4 193 12 256 72
80 79 121 205 137 430 5 78 10 186 10 240 l0 98 -37 37 c-36 36 -39 37 -152
49 -120 12 -145 13 -196 6z m228 -42 c37 -4 71 -11 75 -17 4 -5 5 -56 2 -113
l-5 -104 -135 -27 c-218 -44 -197 -43 -212 -12 -19 39 -59 55 -106 42 -45 -11
-67 -33 -77 -72 -6 -22 -13 -28 -34 -28 -14 0 -43 -3 -63 -6 l-38 -7 0 57 c0
65 15 107 55 154 44 52 98 75 193 80 68 4 82 7 82 21 0 33 22 41 110 40 47 0
115 -3 153 -8z m-303 -310 c0 -12 -21 -27 -49 -36 -31 -10 -24 15 10 32 29 15
39 16 39 4z"/>
<path d="M145 2319 c-4 -6 -5 -12 -2 -15 2 -3 7 2 10 11 7 17 1 20 -8 4z"/>
<path d="M5350 2286 c0 -2 8 -10 18 -17 15 -13 16 -12 3 4 -13 16 -21 21 -21
13z"/>
<path d="M5420 2216 c0 -2 8 -10 18 -17 15 -13 16 -12 3 4 -13 16 -21 21 -21
13z"/>
<path d="M92 2130 c0 -14 2 -19 5 -12 2 6 2 18 0 25 -3 6 -5 1 -5 -13z"/>
<path d="M82 2040 c0 -14 2 -19 5 -12 2 6 2 18 0 25 -3 6 -5 1 -5 -13z"/>
<path d="M5571 1804 c0 -11 3 -14 6 -6 3 7 2 16 -1 19 -3 4 -6 -2 -5 -13z"/>
<path d="M1120 1516 c0 -2 8 -10 18 -17 15 -13 16 -12 3 4 -13 16 -21 21 -21
13z"/>
<path d="M5338 1483 c7 -3 16 -2 19 1 4 3 -2 6 -13 5 -11 0 -14 -3 -6 -6z"/>
<path d="M4788 1473 c7 -3 16 -2 19 1 4 3 -2 6 -13 5 -11 0 -14 -3 -6 -6z"/>
<path d="M798 1393 c7 -3 16 -2 19 1 4 3 -2 6 -13 5 -11 0 -14 -3 -6 -6z"/>
<path d="M4289 1313 c-13 -16 -12 -17 4 -4 16 13 21 21 13 21 -2 0 -10 -8 -17
-17z"/>
</g>
</svg>
