<svg width="163" height="146" viewBox="0 0 163 146" fill="none" xmlns="http://www.w3.org/2000/svg">
<g opacity="0.2">
<path opacity="0.2" d="M62.209 101.069C62.0706 100.918 62.0104 100.869 61.8179 100.902C61.7094 100.918 61.61 100.976 61.538 101.065C61.4764 101.121 61.4344 101.197 61.419 101.283C61.4037 101.368 61.416 101.456 61.4538 101.532C61.5236 101.622 61.6207 101.683 61.7276 101.702C61.8098 101.737 61.8987 101.749 61.9864 101.738C62.0741 101.727 62.1578 101.692 62.2301 101.637C62.2947 101.557 62.3285 101.454 62.3246 101.348C62.3206 101.242 62.2793 101.142 62.209 101.069Z" fill="black"/>
</g>
<g opacity="0.2">
<path opacity="0.2" d="M63.172 100.752C63.0907 100.667 63.0576 100.638 62.9463 100.657C62.8846 100.665 62.8278 100.698 62.7868 100.749C62.752 100.781 62.7283 100.825 62.7196 100.873C62.7108 100.922 62.7175 100.972 62.7387 101.016C62.7783 101.068 62.8338 101.103 62.8951 101.114C62.9437 101.138 62.9972 101.147 63.05 101.14C63.1029 101.134 63.1533 101.113 63.196 101.078C63.2312 101.031 63.2483 100.971 63.2439 100.91C63.2394 100.849 63.2137 100.793 63.172 100.752Z" fill="black"/>
</g>
<path d="M25.8779 109.172C25.8779 109.172 19.7816 107.238 18.4666 107.137C17.4285 107.055 16.5047 108.378 16.1677 108.933C16.0774 109.08 16.0293 109.172 16.0293 109.172H25.8779Z" fill="#E0E0E0"/>
<path d="M25.8777 109.172L23.0583 109.201C21.2919 109.224 18.7944 109.26 16.0291 109.257H15.8877L15.9599 109.129C16.0472 108.979 16.1405 108.803 16.2428 108.662C16.6341 108.012 17.1841 107.493 17.8315 107.163C17.9959 107.095 18.1701 107.058 18.3461 107.055C18.4316 107.049 18.5176 107.055 18.6019 107.072C18.6831 107.072 18.7674 107.091 18.8486 107.108C19.1706 107.17 19.4805 107.242 19.7844 107.317C20.988 107.624 22.0683 107.947 22.971 108.221C23.8737 108.496 24.6019 108.731 25.1044 108.894L25.6791 109.09C25.7469 109.113 25.8132 109.14 25.8777 109.172C25.8077 109.161 25.7383 109.146 25.6701 109.126L25.0863 108.959L22.9439 108.336C22.0412 108.078 20.9579 107.767 19.7513 107.47C19.4504 107.398 19.1495 107.326 18.8245 107.268C18.5135 107.187 18.1875 107.205 17.8857 107.32C17.2712 107.64 16.7504 108.138 16.3812 108.76C16.2789 108.91 16.1886 109.071 16.1043 109.214L16.0381 109.087C18.7463 109.087 21.1866 109.12 22.9589 109.142L25.8777 109.172Z" fill="#263238"/>
<path d="M44.564 109.067C44.564 109.113 34.586 109.198 22.282 109.257C9.97799 109.315 0 109.325 0 109.276C0 109.227 9.97498 109.146 22.282 109.087C34.589 109.028 44.561 109.018 44.564 109.067Z" fill="#263238"/>
<path d="M28.1225 110.808C28.1225 110.854 25.3783 110.893 21.9961 110.893C18.614 110.893 15.8667 110.854 15.8667 110.808C15.8667 110.762 18.611 110.723 21.9961 110.723C25.3813 110.723 28.1225 110.762 28.1225 110.808Z" fill="#263238"/>
<path d="M89.6483 95.5653L89.0104 95.3007L88.1799 96.1924L88.7215 94.5365L87.6172 94.3079L86.6964 95.9605L87.1417 93.8604L86.0284 93.7134L85.3935 95.9997L85.5891 92.8577L85.0775 93.0374L84.3132 96.2708L84.575 92.1882C84.575 92.1882 83.2571 91.6623 83.227 91.7766C83.1969 91.891 81.5028 95.905 81.5028 95.905L81.9301 91.855L78.7796 91.1855L77.9732 96.0846L77.8438 91.2214L75.1146 90.9144L74.4616 96.532L73.9742 90.6695L73.3723 90.7119L73.583 96.7051L72.0303 90.4343L68.6181 90.5715L68.7745 97.2179L67.2941 90.7642L66.5177 90.8981L67.5529 97.4302L65.7023 91.7701L64.3422 92.2306L63.7915 93.6873L63.6321 99.6936L62.7655 93.1223L61.9891 93.2529L62.4074 99.8863L60.6742 93.5142L57.3793 94.5136L57.6802 101.003L56.1756 95.2289L55.5738 95.3922L56.7775 101.134L54.5658 96.0062L52.0563 97.2114L53.311 101.882L51.1536 97.5021L48.3431 99.1906L49.8988 102.901C49.8988 102.901 47.1485 99.6348 47.0883 99.5466C47.0281 99.4585 45.9238 100.389 45.9238 100.389L47.326 104.184L45.6921 101.372H45.1535L46.2308 104.312L44.976 102.336L43.9589 102.845L44.976 104.694L43.6309 103.407L42.644 103.985L43.6309 105.38L42.5868 104.808L42.0542 105.292L42.9118 106.271L67.3181 101.114L66.8578 99.7099L89.1097 96.7999L89.6483 95.5653Z" fill="#455A64"/>
<path d="M29.4888 109.237C29.4888 109.237 66.2292 97.7797 77.2032 96.2381C88.1772 94.6965 105.527 96.2381 105.527 96.2381L102.431 102.77L44.5611 109.067L29.4888 109.237Z" fill="#E0E0E0"/>
<path d="M29.4887 109.237L44.567 109.018L102.425 102.679L102.362 102.725C103.171 101.026 104.035 99.207 104.904 97.3747L105.458 96.2087L105.521 96.3328C100.165 95.905 94.9264 95.6796 89.8742 95.66C87.3466 95.66 84.8611 95.696 82.4358 95.8429C80.0623 95.9575 77.697 96.2247 75.3526 96.6431C74.7778 96.728 74.2121 96.8685 73.6494 96.9697L71.9734 97.3225L68.6996 98.1063L65.534 98.9L62.4738 99.7002C58.4688 100.768 54.7466 101.807 51.3584 102.777C44.579 104.717 39.1146 106.353 35.3413 107.49L30.9992 108.796L29.8708 109.123L29.4827 109.234L29.8648 109.106L30.9932 108.754L35.3262 107.408C39.0966 106.255 44.555 104.599 51.3344 102.646C54.7225 101.666 58.4417 100.621 62.4468 99.5499L65.5039 98.7595L68.6695 97.9593L71.9403 97.1885L73.6193 96.8358C74.182 96.7215 74.7447 96.5843 75.3225 96.5092C77.6717 96.0873 80.042 95.818 82.4208 95.7025C84.8521 95.5522 87.3376 95.5065 89.8682 95.5131C94.9324 95.5131 100.174 95.7547 105.533 96.1663H105.651L105.596 96.2806L105.043 97.4531L102.503 102.803L102.482 102.845H102.44L44.567 109.116L29.4887 109.237Z" fill="#263238"/>
<g opacity="0.2">
<path opacity="0.2" d="M41.7537 105.452C41.7537 105.452 52.0446 106.347 54.9935 106.262C57.9423 106.177 70.5532 103.881 70.9414 103.91C71.3296 103.939 77.7569 99.4127 80.3417 99.269C82.9264 99.1253 91.7219 100.428 91.7219 100.428L93.3287 99.2592C93.3287 99.2592 81.8943 97.6621 79.8271 97.734C77.7599 97.8058 72.5633 102.617 70.7639 102.96C68.9645 103.303 49.8961 104.364 48.4969 103.904L47.844 103.659L41.7537 105.452Z" fill="black"/>
</g>
<path d="M94.5921 102.803L93.8819 71.2526L97.565 67.9212L97.2641 67.268L93.8248 69.9266L92.1247 46.8812H91.2791C91.2791 46.8812 90.6773 98.3382 89.6663 100.118C88.6552 101.898 86.7686 102.822 86.7686 102.822L94.5921 102.803Z" fill="#DB8A76"/>
<path d="M93.5452 101.176C93.5404 101.143 93.5404 101.109 93.5452 101.075C93.5452 101 93.5603 100.902 93.5693 100.778C93.5964 100.507 93.6355 100.125 93.6836 99.6283C93.7799 98.6322 93.9274 97.1919 94.0598 95.4086C94.2233 93.3211 94.2675 91.2246 94.1922 89.1312C94.1427 87.8958 94.0272 86.6646 93.8461 85.4438C93.6506 84.1733 93.3707 82.8701 93.0969 81.5245C92.8155 80.2251 92.6055 78.9088 92.468 77.5824C92.4138 76.9494 92.3907 76.3138 92.3988 75.6782C92.4139 75.0695 92.4601 74.4622 92.5372 73.859C92.6816 72.6832 92.9043 71.5728 93.1059 70.544C93.3075 69.5152 93.485 68.5484 93.5964 67.6633C93.8033 66.2679 93.8033 64.8455 93.5964 63.4501C93.5338 63.0702 93.4493 62.695 93.3436 62.3265C93.3075 62.2089 93.2774 62.1142 93.2564 62.0424C93.2446 62.0098 93.2365 61.9758 93.2323 61.9411C93.2323 61.9411 93.2473 61.9738 93.2714 62.0358L93.3707 62.32C93.4887 62.6856 93.5823 63.06 93.6506 63.4403C93.8829 64.843 93.8981 66.278 93.6957 67.6862C93.5904 68.5778 93.4158 69.5445 93.2203 70.5799C93.0247 71.6152 92.808 72.7159 92.6666 73.8884C92.5915 74.4873 92.5473 75.0903 92.5342 75.6946C92.5256 76.3248 92.5497 76.9551 92.6064 77.5824C92.7447 78.9011 92.9547 80.2098 93.2353 81.5016C93.5091 82.8407 93.789 84.1439 93.9815 85.4209C94.1635 86.6469 94.2771 87.8838 94.3216 89.1247C94.3913 91.2231 94.3371 93.3242 94.1591 95.4151C94.0146 97.2017 93.8582 98.642 93.7348 99.6349C93.6776 100.125 93.6295 100.51 93.5964 100.778C93.5813 100.905 93.5663 101.003 93.5573 101.078C93.5552 101.111 93.5511 101.144 93.5452 101.176Z" fill="#9A5D53"/>
<path d="M87.9695 102.78C88.4151 102.804 88.8615 102.754 89.2935 102.633C90.435 102.283 91.4255 101.506 92.0889 100.438C92.5242 99.7297 92.8523 98.9502 93.0608 98.1292C93.2945 97.1949 93.4635 96.2429 93.5663 95.2812C93.852 93.0844 93.8914 90.8581 93.6837 88.651C93.6661 88.2757 93.5791 87.908 93.4279 87.57C93.3507 87.4067 93.2356 87.2682 93.0939 87.1682C92.948 87.0748 92.7768 87.0391 92.6094 87.067C92.4465 87.1133 92.2939 87.1951 92.1609 87.3074C92.028 87.4197 91.9175 87.5601 91.8361 87.7202C91.6636 88.0313 91.5185 88.3594 91.4028 88.7C90.9602 89.9479 90.8446 91.3045 91.0688 92.6193C91.0984 92.9172 91.1845 93.2052 91.3216 93.4652C91.3557 93.5224 91.4025 93.5694 91.4577 93.6019C91.5129 93.6344 91.5747 93.6515 91.6375 93.6514C91.6995 93.6452 91.7596 93.6255 91.8144 93.5935C91.8692 93.5615 91.9175 93.5179 91.9565 93.4652C92.0402 93.3603 92.1091 93.2426 92.1611 93.1158C92.2185 92.9937 92.2697 92.8683 92.3145 92.7402C92.4001 92.4962 92.4626 92.2434 92.5011 91.9857C92.6379 91.1105 92.5024 90.2107 92.1159 89.4284H92.1821C91.8343 89.9469 91.6439 90.5702 91.6375 91.2116C91.6387 91.3777 91.6498 91.5435 91.6706 91.7081C91.6821 91.7641 91.6901 91.8208 91.6947 91.8779C91.6323 91.6667 91.5999 91.4465 91.5984 91.2247C91.5875 90.5703 91.7699 89.9294 92.119 89.3957L92.1551 89.3402L92.1851 89.399C92.5894 90.1948 92.7367 91.1146 92.6034 92.0118C92.5326 92.5642 92.3418 93.0903 92.0467 93.5469C91.9975 93.6139 91.9359 93.6691 91.866 93.709C91.7961 93.7489 91.7193 93.7727 91.6405 93.7788C91.5584 93.7796 91.4773 93.7587 91.4044 93.7177C91.3315 93.6767 91.269 93.6169 91.2223 93.5436C91.0725 93.2712 90.9781 92.9672 90.9454 92.652C90.7042 91.3061 90.8179 89.9136 91.2734 88.6347C91.3902 88.2882 91.5374 87.9546 91.7127 87.6386C91.8127 87.4752 91.9321 87.327 92.0678 87.1976C92.2131 87.0546 92.3924 86.9584 92.5854 86.92C92.7883 86.8879 92.9952 86.9316 93.1721 87.0441C93.3346 87.1571 93.4664 87.3149 93.5543 87.5014C93.7173 87.8543 93.8105 88.2404 93.8281 88.6347C94.0352 90.852 93.9918 93.0884 93.6987 95.2942C93.5927 96.2623 93.4177 97.2199 93.1751 98.1586C92.9596 98.9891 92.6223 99.7765 92.1761 100.491C91.4913 101.568 90.4742 102.344 89.3085 102.679C88.9836 102.765 88.65 102.807 88.3155 102.803C88.229 102.802 88.1426 102.795 88.0567 102.783C88.0277 102.788 87.9982 102.787 87.9695 102.78Z" fill="#9A5D53"/>
<path d="M92.5792 67.0068C92.537 66.9772 92.4968 66.9445 92.4589 66.9088L92.0978 66.5822H92.1279C92.0293 66.858 91.9714 67.149 91.9564 67.4444C91.9364 67.8661 92.0086 68.2869 92.167 68.6725C92.2071 68.7909 92.265 68.9013 92.3385 68.9991C92.3735 69.0478 92.4199 69.0855 92.4727 69.1085C92.5256 69.1314 92.5831 69.1388 92.6394 69.1297C92.6976 69.1108 92.7513 69.0786 92.797 69.0352C92.8426 68.9918 92.8792 68.9383 92.9042 68.8782C92.9655 68.7546 93.0044 68.6193 93.0186 68.4798C93.1083 67.8492 93.1134 67.2078 93.0336 66.5756C92.9898 66.2248 92.9194 65.8785 92.823 65.5403C92.7786 65.3644 92.716 65.1946 92.6364 65.0341C92.5574 64.869 92.4375 64.731 92.2904 64.6356C92.2145 64.5913 92.1298 64.5681 92.0436 64.5681C91.9575 64.5681 91.8727 64.5913 91.7969 64.6356C91.6451 64.7379 91.5246 64.8868 91.4509 65.0635C91.3715 65.245 91.3109 65.4356 91.2703 65.6318C91.2161 65.831 91.183 66.0335 91.1409 66.2392C90.84 67.8723 91.0145 69.7045 91.2071 71.5695C91.4311 73.6768 91.5317 75.7975 91.508 77.9187C91.4862 79.6448 91.3807 81.3684 91.1921 83.0824C91.0296 84.5488 90.84 85.7312 90.6896 86.5444C90.6204 86.9494 90.5481 87.2629 90.506 87.4785C90.4849 87.5765 90.4669 87.6581 90.4548 87.7202C90.4505 87.7486 90.4424 87.7761 90.4308 87.8019C90.4267 87.7737 90.4267 87.7451 90.4308 87.7169C90.4308 87.6549 90.4518 87.5732 90.4699 87.472C90.503 87.2564 90.5632 86.9429 90.6234 86.5346C90.7588 85.7214 90.9243 84.539 91.0837 83.0693C91.2432 81.5996 91.3485 79.849 91.3636 77.8991C91.384 75.7823 91.2835 73.6662 91.0627 71.5629C90.8701 69.698 90.7016 67.869 91.0055 66.1935C91.0506 65.9877 91.0837 65.782 91.1409 65.5795C91.1834 65.3749 91.248 65.1765 91.3335 64.9883C91.4177 64.7864 91.5562 64.6168 91.7307 64.5017C91.8265 64.4462 91.9335 64.4172 92.0421 64.4172C92.1508 64.4172 92.2577 64.4462 92.3536 64.5017C92.5204 64.6091 92.6559 64.7653 92.7447 64.9524C92.8292 65.1208 92.8948 65.2995 92.9403 65.4848C93.0344 65.8301 93.1038 66.1828 93.1479 66.5397C93.2231 67.1814 93.213 67.8314 93.1179 68.47C93.0977 68.6206 93.0539 68.7664 92.9885 68.9011C92.9559 68.973 92.9096 69.0364 92.8524 69.0872C92.7953 69.1379 92.7288 69.1747 92.6575 69.195C92.5857 69.2067 92.5124 69.1978 92.4448 69.1691C92.3773 69.1405 92.3178 69.0931 92.2723 69.0317C92.1965 68.934 92.1356 68.8237 92.0918 68.7051C91.9584 68.3682 91.8896 68.0054 91.8896 67.6387C91.8896 67.2721 91.9584 66.9093 92.0918 66.5724V66.5462L92.1128 66.5658L92.4589 66.8925C92.5028 66.9255 92.5432 66.9639 92.5792 67.0068Z" fill="#9A5D53"/>
<path d="M92.2968 25.2729C92.2968 25.5995 85.6348 44.7811 85.6348 44.7811L88.9658 41.6849L84.1513 55.1019L87.3289 51.0748L82.2767 68.0584L85.4091 66.1478L82.2466 78.0167L84.9547 74.9204L82.2466 83.7976L103.701 82.3507L98.6188 65.6317L101.688 68.728L97.7161 56.5488L99.7502 57.5808L95.1193 41.9037L97.2647 43.2461L92.2968 25.2729Z" fill="#455A64"/>
<path d="M48.3645 145.827L61.9895 134.503L68.483 127.338L66.9995 111.478L99.2294 104.129L162.69 103.897L163 145.798L64.9233 145.827H48.3645Z" fill="#9A5D53"/>
<g opacity="0.2">
<path opacity="0.2" d="M132.26 123.157C132.26 123.157 123.533 121.152 115.785 122.67C108.037 124.189 96.7379 128.683 87.6205 128.04C78.5031 127.396 68.3204 122.314 68.3204 122.314L68.0195 122.37L68.3776 126.195C68.3776 126.195 80.3657 129.725 86.8321 132.008C93.2985 134.291 107.294 126.564 112.833 124.924C118.373 123.284 128.098 124.454 131.11 126.195C134.122 127.935 162.817 121.233 162.817 121.233L162.759 113.395L132.26 123.157Z" fill="white"/>
</g>
<path d="M117.139 103.361C116.926 103.512 114.365 105.925 114.365 105.925L114.064 109.371L112.86 109.763L110.044 109.041L107.904 111.092L105.515 110.07L107.832 111.536L108.545 111.21L110.11 109.72L112.818 110.397L110.357 110.935L108.852 112.418L108.927 114.332L109.228 112.683L110.48 111.481L113.375 110.707L114.771 109.796L115.343 107.509L115.788 109.864L113.498 111.563L113.14 114.763L110.023 115.626L108.169 117.085L107.08 115.354L103.433 114.914L106.671 115.835L108.028 117.974L107.164 119.068L104.757 118.415L102.031 121.465L104.739 119.287L107.36 119.783L108.305 118.928L108.831 117.314L110.239 115.968L112.827 115.541L113.128 117.428L110.279 119.254L109.74 122.602L107.002 123.794L110.312 122.595L110.766 119.689L113.953 117.824L113.652 115.315L114.142 111.654L115.117 111.105L115.036 114.283L116.923 115.426L115.695 114.019L115.746 111.095L116.649 109.809L116.14 107.013L115.839 105.804L117.509 104.171L117.139 103.361Z" fill="#824943"/>
<path d="M115.911 107.63C116.101 107.676 118.523 108.685 118.523 108.685L119.558 111.086L120.53 111.02L122.384 109.714L124.415 110.583L125.889 109.172L124.574 110.87L123.973 110.831L122.486 110.207L120.708 111.458L122.609 111.131L124.054 111.785L124.457 113.183L123.855 112.079L122.652 111.569L120.383 111.834L119.158 111.576L118.195 110.08L118.43 111.915L120.485 112.487L121.52 114.691L123.97 114.43L125.655 114.953L126.022 113.398L128.537 112.046L126.431 113.627L125.971 115.55L126.852 116.093L128.432 114.943L131.14 116.367L128.676 115.563L126.909 116.664L126.025 116.318L125.257 115.305L123.918 114.737L121.953 115.162L122.191 116.609L124.68 117.112L125.862 119.375L128.122 119.457L125.45 119.532L124.424 117.572L121.683 117.134L121.301 115.243L120.067 112.751L119.233 112.634L120.058 114.894L118.975 116.249L119.519 114.891L118.779 112.8L117.819 112.147L117.518 109.992L117.44 109.041L115.848 108.329L115.911 107.63Z" fill="#824943"/>
<path d="M162.69 83.0824C162.69 83.0824 83.5941 98.0639 78.1357 101.895C74.178 104.69 70.4823 107.9 67.1016 111.478L67.2941 113.561C67.2941 113.561 83.1217 112.846 95.2091 109.08L118.153 105.138L162.687 105.579L162.69 83.0824Z" fill="#455A64"/>
<path d="M149.601 90.3298L148.86 57.3424L152.712 53.8608L152.411 53.1717L148.8 55.9478L147.025 31.8573H146.149C146.149 31.8573 145.517 85.656 144.464 87.5014C143.411 89.3467 141.425 90.3298 141.425 90.3298H149.601Z" fill="#DB8A76"/>
<path d="M148.506 88.6347C148.501 88.5989 148.501 88.5626 148.506 88.5269C148.506 88.4518 148.521 88.3473 148.533 88.2166C148.56 87.9325 148.599 87.5307 148.65 87.0147C148.752 85.9761 148.909 84.4672 149.044 82.6022C149.216 80.4203 149.262 78.2289 149.183 76.0407C149.131 74.7494 149.01 73.4624 148.818 72.1867C148.617 70.8574 148.325 69.4955 148.039 68.0943C147.745 66.7357 147.525 65.3594 147.38 63.9726C147.322 63.3115 147.298 62.6475 147.308 61.9835C147.323 61.3475 147.372 60.7129 147.452 60.0827C147.606 58.8514 147.837 57.6952 148.054 56.6174C148.271 55.5396 148.454 54.5303 148.569 53.6028C148.785 52.1435 148.785 50.6561 148.569 49.1968C148.502 48.8017 148.413 48.4113 148.304 48.0276C148.265 47.9002 148.235 47.8022 148.214 47.7271C148.201 47.6936 148.192 47.6585 148.187 47.6226C148.204 47.6532 148.218 47.6861 148.229 47.7206C148.253 47.7957 148.289 47.8937 148.334 48.0178C148.46 48.3991 148.561 48.7899 148.635 49.187C148.875 50.6505 148.89 52.147 148.68 53.6158C148.572 54.5467 148.379 55.5755 148.184 56.6402C147.988 57.705 147.753 58.8742 147.606 60.099C147.527 60.725 147.481 61.3552 147.467 61.9868C147.46 62.641 147.485 63.2951 147.543 63.9464C147.684 65.3297 147.9 66.7027 148.19 68.0584C148.475 69.4563 148.767 70.8215 148.969 72.1573C149.158 73.4387 149.278 74.731 149.327 76.0276C149.399 78.222 149.341 80.4192 149.152 82.6055C149.002 84.4704 148.83 85.9761 148.71 87.0147C148.65 87.5275 148.602 87.9292 148.566 88.2133C148.548 88.344 148.536 88.4452 148.524 88.54C148.521 88.5721 148.515 88.6039 148.506 88.6347Z" fill="#9A5D53"/>
<path d="M142.677 90.3069C143.143 90.3277 143.609 90.2749 144.061 90.1502C145.254 89.7877 146.289 88.9775 146.983 87.8639C147.438 87.1236 147.782 86.3087 148 85.4503C148.245 84.4722 148.422 83.4754 148.529 82.4684C148.826 80.173 148.868 77.8472 148.653 75.541C148.633 75.1474 148.541 74.7619 148.382 74.4077C148.301 74.2375 148.181 74.0934 148.033 73.9896C147.881 73.8908 147.702 73.8527 147.527 73.8819C147.357 73.9306 147.198 74.0159 147.059 74.1326C146.92 74.2493 146.804 74.395 146.718 74.5612C146.539 74.8838 146.388 75.2239 146.267 75.577C145.803 76.8809 145.683 78.2986 145.918 79.6726C145.947 79.9837 146.037 80.2843 146.182 80.5545C146.218 80.6143 146.266 80.6636 146.323 80.6978C146.381 80.732 146.445 80.7501 146.51 80.7504C146.575 80.7435 146.638 80.7226 146.695 80.6889C146.753 80.6553 146.803 80.6096 146.844 80.5545C146.932 80.4439 147.004 80.3208 147.061 80.1887C147.121 80.0614 147.174 79.9305 147.22 79.7967C147.309 79.5417 147.374 79.2781 147.416 79.0096C147.557 78.0941 147.415 77.1537 147.013 76.3347H147.079C146.717 76.8779 146.52 77.5294 146.513 78.1996C146.513 78.3733 146.524 78.5469 146.546 78.7189C146.558 78.7771 146.566 78.836 146.57 78.8953C146.505 78.6714 146.471 78.4379 146.471 78.2029C146.458 77.5189 146.649 76.8487 147.016 76.2922L147.052 76.2334L147.082 76.2955C147.505 77.1244 147.661 78.0833 147.524 79.0194C147.449 79.5989 147.248 80.1507 146.938 80.6296C146.886 80.6992 146.822 80.7567 146.749 80.7982C146.676 80.8398 146.595 80.8647 146.513 80.8713C146.428 80.872 146.343 80.8501 146.267 80.8074C146.191 80.7647 146.126 80.7026 146.077 80.6263C145.918 80.3413 145.815 80.023 145.776 79.6922C145.531 78.2957 145.648 76.8526 146.116 75.5247C146.24 75.1625 146.396 74.8138 146.579 74.4828C146.682 74.3098 146.806 74.1536 146.95 74.019C147.102 73.8707 147.29 73.7712 147.491 73.7316C147.699 73.7008 147.911 73.7456 148.093 73.859C148.262 73.9776 148.4 74.1419 148.493 74.3359C148.661 74.7061 148.759 75.1094 148.779 75.5214C148.995 77.8388 148.949 80.1761 148.644 82.4814C148.532 83.4945 148.349 84.4969 148.096 85.4797C147.871 86.3479 147.517 87.1708 147.049 87.9162C146.33 89.0447 145.263 89.856 144.04 90.2024C143.701 90.2923 143.353 90.3362 143.005 90.3331C142.884 90.3331 142.794 90.3168 142.734 90.3135L142.677 90.3069Z" fill="#9A5D53"/>
<path d="M147.497 52.9038C147.452 52.8755 147.409 52.8416 147.371 52.8026L146.992 52.476H147.025C146.897 52.8241 146.835 53.1965 146.841 53.5711C146.848 53.9458 146.924 54.3152 147.064 54.6577C147.108 54.7763 147.169 54.8865 147.244 54.9843C147.28 55.0326 147.326 55.0703 147.379 55.0937C147.431 55.1172 147.489 55.1256 147.545 55.1182C147.605 55.0992 147.661 55.0663 147.708 55.0218C147.756 54.9773 147.793 54.9221 147.819 54.8602C147.884 54.7296 147.925 54.5865 147.939 54.4389C148.029 53.7794 148.029 53.1093 147.939 52.4499C147.895 52.0836 147.822 51.722 147.723 51.3688C147.676 51.1845 147.61 51.0068 147.524 50.8397C147.443 50.666 147.318 50.521 147.163 50.4216C147.084 50.3759 146.996 50.3519 146.906 50.3519C146.816 50.3519 146.728 50.3759 146.649 50.4216C146.49 50.528 146.364 50.6839 146.288 50.8691C146.203 51.0586 146.14 51.2581 146.098 51.4635C146.041 51.6693 146.008 51.8848 145.963 52.0971C145.662 53.8249 145.83 55.7192 146.032 57.6723C146.262 59.8754 146.362 62.0921 146.333 64.309C146.311 66.1201 146.202 67.9287 146.005 69.7274C145.833 71.2624 145.638 72.497 145.478 73.3462C145.406 73.7708 145.331 74.1007 145.289 74.326L145.231 74.5775C145.228 74.6071 145.22 74.6359 145.207 74.6624V74.5742C145.207 74.5089 145.231 74.424 145.249 74.3195C145.283 74.0941 145.346 73.7675 145.412 73.3397C145.55 72.4872 145.731 71.2526 145.89 69.7176C146.05 68.1825 146.167 66.3503 146.191 64.3122C146.208 62.0992 146.099 59.8872 145.866 57.6886C145.665 55.729 145.49 53.8281 145.806 52.0743C145.851 51.8587 145.887 51.6431 145.948 51.421C145.991 51.2066 146.058 50.9984 146.146 50.8005C146.236 50.5904 146.382 50.4141 146.564 50.2942C146.664 50.2356 146.776 50.205 146.889 50.205C147.003 50.205 147.114 50.2356 147.214 50.2942C147.389 50.4054 147.531 50.5686 147.624 50.7646C147.712 50.9412 147.781 51.1287 147.828 51.3231C147.928 51.6828 148.001 52.0509 148.045 52.4237C148.125 53.0947 148.114 53.7747 148.012 54.4422C147.994 54.5995 147.948 54.7516 147.876 54.8896C147.844 54.9655 147.797 55.0325 147.737 55.0857C147.678 55.1388 147.608 55.1768 147.533 55.1966C147.458 55.2098 147.382 55.2014 147.311 55.1721C147.24 55.1429 147.178 55.0939 147.13 55.03C147.051 54.9224 146.987 54.8024 146.94 54.674C146.78 54.2617 146.71 53.8144 146.736 53.3676C146.757 53.0533 146.827 52.7452 146.944 52.4564V52.4303L146.965 52.4499L147.329 52.7961C147.388 52.8265 147.444 52.8625 147.497 52.9038Z" fill="#9A5D53"/>
<path d="M147.199 9.2691C147.199 9.59571 140.236 29.6657 140.236 29.6657L143.718 26.4258L138.702 40.4699L142.012 36.2599L136.731 54.011L140.005 52.0155L136.695 64.4265L139.526 61.1899L136.695 70.472L159.124 68.9599L153.81 51.4798L157.021 54.7165L152.865 41.9788L154.993 43.0599L150.151 26.6283L152.396 28.0327L147.199 9.2691Z" fill="#455A64"/>
<path d="M98.0404 109.391L96.7014 106.925C97.2491 107.402 97.8088 107.857 98.3805 108.29C98.0234 107.327 97.8199 106.306 97.7787 105.269C98.1469 106.293 98.6332 107.262 99.226 108.153C99.2832 107.5 99.3584 106.814 99.7255 106.298C99.7688 107.409 100.025 108.498 100.478 109.495C99.8618 109.343 99.2221 109.343 98.6061 109.495" fill="#9A5D53"/>
<path d="M74.7355 130.088C75.47 130.088 76.0655 129.441 76.0655 128.644C76.0655 127.847 75.47 127.201 74.7355 127.201C74.001 127.201 73.4055 127.847 73.4055 128.644C73.4055 129.441 74.001 130.088 74.7355 130.088Z" fill="#824943"/>
<path d="M146.399 113.3C146.4 113.606 146.317 113.905 146.161 114.16C146.005 114.414 145.782 114.613 145.522 114.73C145.262 114.847 144.975 114.878 144.699 114.819C144.423 114.759 144.169 114.612 143.97 114.396C143.77 114.179 143.635 113.904 143.58 113.604C143.525 113.304 143.554 112.993 143.662 112.711C143.77 112.428 143.953 112.187 144.187 112.018C144.422 111.848 144.697 111.758 144.979 111.759C145.356 111.759 145.717 111.921 145.983 112.21C146.25 112.499 146.399 112.891 146.399 113.3Z" fill="#824943"/>
<g opacity="0.2">
<path opacity="0.2" d="M122.601 126.698C122.601 127.003 122.517 127.302 122.361 127.556C122.204 127.81 121.982 128.008 121.722 128.125C121.462 128.242 121.176 128.272 120.9 128.213C120.624 128.153 120.37 128.006 120.171 127.79C119.972 127.574 119.836 127.299 119.781 126.999C119.727 126.699 119.755 126.389 119.862 126.106C119.97 125.824 120.153 125.583 120.387 125.413C120.621 125.243 120.896 125.153 121.177 125.153C121.364 125.152 121.55 125.192 121.723 125.269C121.895 125.347 122.052 125.461 122.185 125.604C122.317 125.748 122.422 125.918 122.493 126.106C122.565 126.293 122.601 126.495 122.601 126.698Z" fill="black"/>
</g>
<path d="M78.5512 126.195C78.5512 126.365 78.5046 126.532 78.4173 126.674C78.33 126.815 78.2059 126.926 78.0608 126.991C77.9156 127.056 77.7559 127.073 77.6018 127.04C77.4477 127.007 77.3062 126.925 77.1951 126.804C77.084 126.684 77.0083 126.53 76.9777 126.363C76.947 126.195 76.9627 126.022 77.0229 125.865C77.083 125.707 77.1848 125.572 77.3155 125.478C77.4461 125.383 77.5997 125.332 77.7568 125.332C77.9675 125.332 78.1695 125.423 78.3185 125.585C78.4675 125.747 78.5512 125.966 78.5512 126.195Z" fill="#824943"/>
<path d="M140.492 111.709C140.961 111.709 141.341 111.297 141.341 110.788C141.341 110.28 140.961 109.867 140.492 109.867C140.023 109.867 139.644 110.28 139.644 110.788C139.644 111.297 140.023 111.709 140.492 111.709Z" fill="#824943"/>
<g opacity="0.2">
<path opacity="0.2" d="M116.953 131.93C117.421 131.93 117.801 131.517 117.801 131.009C117.801 130.5 117.421 130.088 116.953 130.088C116.484 130.088 116.104 130.5 116.104 131.009C116.104 131.517 116.484 131.93 116.953 131.93Z" fill="black"/>
</g>
<path d="M48.3645 145.824C52.538 144.785 56.8951 140.996 61.493 141.179C62.7538 141.228 63.9604 141.695 65.2001 141.95C69.169 142.77 73.2313 141.401 76.9865 139.775C79.2463 138.795 81.5633 137.701 83.9946 137.786C86.0709 137.861 88.0598 138.798 90.1391 138.883C95.7179 139.115 100.304 133.292 105.888 133.331C108.897 133.347 111.819 135.078 114.765 134.487C117.208 133.997 119.161 132.002 121.502 131.103C124.211 130.071 127.265 130.607 129.807 132.034C129.807 132.034 132.452 133.292 134.938 132.645C137.423 131.998 140.523 128.546 142.301 128.644C144.079 128.742 162.877 129.297 162.877 129.297L163 145.791L74.3988 145.863L63.512 146L48.3645 145.824Z" fill="#824943"/>
<path d="M99.7681 90.3951C99.9842 90.5718 100.179 90.777 100.349 91.0058C101.213 92.065 101.884 93.2917 102.329 94.6214C102.434 94.891 102.507 95.1742 102.545 95.464C102.421 95.206 102.315 94.9386 102.226 94.6638C101.978 94.0218 101.689 93.3988 101.363 92.7989C101.032 92.2004 100.665 91.6264 100.265 91.0809C100.084 90.8658 99.9179 90.6366 99.7681 90.3951Z" fill="#263238"/>
<path d="M102.684 87.7561C102.689 87.8551 102.689 87.9543 102.684 88.0533C102.68 88.3235 102.7 88.5935 102.741 88.86C102.828 89.5426 102.948 90.4931 103.108 91.5252C103.267 92.5572 103.427 93.4848 103.544 94.1805C103.624 94.5438 103.682 94.9126 103.716 95.2844C103.594 94.9347 103.5 94.574 103.436 94.2066C103.288 93.5338 103.111 92.5964 102.951 91.5545C102.792 90.5127 102.69 89.5622 102.633 88.8731C102.603 88.5997 102.603 88.3235 102.633 88.05C102.628 87.9491 102.646 87.8485 102.684 87.7561Z" fill="#263238"/>
<path d="M104.564 91.7048C104.609 91.7048 104.492 92.4462 104.492 93.3575C104.492 94.2687 104.606 94.9905 104.561 95.0101C104.258 93.9329 104.258 92.782 104.561 91.7048H104.564Z" fill="#263238"/>
<path d="M131.174 89.7191C131.131 89.7387 130.722 88.7392 130.087 87.6125C129.452 86.4857 128.845 85.6202 128.884 85.5875C129.052 85.7408 129.201 85.9177 129.326 86.1133C129.654 86.5621 129.956 87.0334 130.229 87.5243C130.502 88.0153 130.746 88.5248 130.96 89.0495C131.058 89.2614 131.13 89.4866 131.174 89.7191Z" fill="#263238"/>
<path d="M131.709 89.3238C131.664 89.3238 131.408 88.3963 131.011 87.2793C130.614 86.1623 130.189 85.2968 130.228 85.2706C130.362 85.4318 130.472 85.6148 130.553 85.8128C131.006 86.7237 131.357 87.6896 131.6 88.6902C131.665 88.8946 131.701 89.108 131.709 89.3238Z" fill="#263238"/>
<path d="M132.097 84.1079C132.134 84.3583 132.146 84.6124 132.133 84.8656C132.133 85.3947 132.154 86.0087 132.166 86.6848C132.178 87.3609 132.211 87.9716 132.232 88.504C132.258 88.7558 132.258 89.0099 132.232 89.2617C132.168 89.0181 132.129 88.7671 132.118 88.5138C132.07 88.0468 132.025 87.4033 132.007 86.6881C131.989 85.9728 132.007 85.3294 132.007 84.8623C132.009 84.6079 132.04 84.3546 132.097 84.1079Z" fill="#263238"/>
<path d="M84.7888 107.088C84.7496 107.111 84.4186 106.52 83.9282 105.866C83.4377 105.213 82.9713 104.74 83.0014 104.701C83.7902 105.3 84.4092 106.127 84.7888 107.088Z" fill="#263238"/>
<path d="M85.7064 107.055C85.5661 106.884 85.4495 106.692 85.3604 106.484C85.1648 106.121 84.912 105.608 84.6502 105.034C84.3885 104.459 84.1718 103.923 84.0274 103.535C83.9342 103.327 83.8654 103.107 83.8228 102.881C84.1784 103.553 84.5018 104.244 84.7917 104.952C85.3092 106.108 85.7576 107.032 85.7064 107.055Z" fill="#263238"/>
<path d="M86.8322 106.899C86.7347 106.702 86.6656 106.491 86.6276 106.271C86.5008 105.753 86.4053 105.226 86.3417 104.694C86.279 104.163 86.2498 103.629 86.2544 103.094C86.2427 102.874 86.2609 102.654 86.3086 102.44C86.3537 102.44 86.3507 103.453 86.4982 104.684C86.6456 105.915 86.8773 106.886 86.8322 106.899Z" fill="#263238"/>
<path d="M140.541 91.7897L145.644 88.9711L150.461 87.6287L150.991 92.6911L144.543 93.3247L140.541 91.7897Z" fill="#455A64"/>
<path d="M80.7868 120.871L84.3796 121.527L87.2923 117.716L84.4428 115.283L79.3003 117.21L80.7868 120.871Z" fill="#824943"/>
<path d="M102.822 125.933L103.339 127.932L105.656 128.579L106.084 126.567L104.089 124.349L102.822 125.933Z" fill="#824943"/>
<path d="M82.2673 132.567L84.7648 135.447L90.5452 136.159L92.9735 131.708L87.6204 130.088L82.2673 132.567Z" fill="#824943"/>
<path d="M94.8088 130.561C94.8901 130.888 95.1098 132.276 95.1098 132.276H96.2321L97.4357 131.417L94.8088 130.561Z" fill="#824943"/>
<g opacity="0.2">
<path opacity="0.2" d="M112.138 104.844C112.162 104.939 110.742 105.455 108.347 105.576C106.944 105.64 105.539 105.541 104.155 105.279C103.728 105.214 103.31 105.089 102.912 104.906C102.669 104.794 102.453 104.623 102.281 104.407C102.177 104.274 102.102 104.117 102.061 103.949C102.025 103.775 102.025 103.594 102.061 103.42C102.126 103.149 102.232 102.891 102.377 102.659C102.434 102.555 102.488 102.46 102.533 102.372C102.57 102.3 102.598 102.223 102.618 102.143C102.636 102.09 102.643 102.033 102.639 101.977C102.635 101.921 102.619 101.866 102.594 101.817C102.56 101.768 102.464 101.712 102.266 101.696C100.499 101.608 98.763 101.516 97.2103 101.418L94.9987 101.271C94.6247 101.261 94.2556 101.177 93.9094 101.023C93.7058 100.928 93.5351 100.766 93.4219 100.559C93.3679 100.451 93.3346 100.332 93.3243 100.21C93.3139 100.087 93.3267 99.964 93.3617 99.8471C93.476 99.5208 93.6559 99.2262 93.8883 98.9849L94.3999 98.3904C94.7218 98.0181 95.0017 97.7013 95.2364 97.4465C95.7028 96.9403 95.9796 96.6757 96.0217 96.7149C96.0639 96.7541 95.8623 97.0873 95.4681 97.6654C95.2695 97.9528 95.0227 98.299 94.7309 98.7007L94.2645 99.3376C94.1002 99.531 93.9743 99.7588 93.8944 100.007C93.883 100.046 93.8799 100.088 93.8851 100.128C93.8903 100.169 93.9037 100.208 93.9244 100.242C93.9828 100.327 94.0636 100.391 94.1561 100.425C94.4385 100.526 94.7345 100.575 95.0318 100.569L97.2434 100.634C98.8111 100.69 100.502 100.755 102.332 100.85C102.48 100.86 102.626 100.893 102.765 100.948C102.936 101.012 103.087 101.125 103.204 101.274C103.318 101.432 103.389 101.621 103.409 101.82C103.425 101.99 103.413 102.161 103.373 102.326C103.337 102.477 103.284 102.622 103.213 102.757C103.153 102.875 103.093 102.979 103.039 103.084C102.94 103.236 102.864 103.403 102.813 103.58C102.801 103.631 102.801 103.684 102.812 103.736C102.823 103.787 102.845 103.834 102.876 103.874C102.977 103.996 103.102 104.093 103.24 104.158C103.579 104.315 103.933 104.424 104.297 104.485C105.629 104.776 106.982 104.936 108.341 104.965C110.673 105.007 112.114 104.71 112.138 104.844Z" fill="white"/>
</g>
<path d="M117.341 42.1846L120.29 37.648L120.717 39.0394L117.235 44.5917L117.341 42.1846Z" fill="#DB8A76"/>
<path d="M109.686 88.7261C109.439 90.1599 109.707 91.6362 109.987 93.0667C109.164 91.8648 108.38 90.6324 107.634 89.3696C107.822 90.7657 108.229 92.1166 108.837 93.364C108.116 92.6631 107.362 92.0035 106.577 91.388C107.338 92.4505 108.059 93.5458 108.741 94.6737L111.329 94.3928C110.583 92.5785 110.031 90.6771 109.686 88.7261Z" fill="#455A64"/>
<path d="M155.17 79.7673C154.923 81.2043 155.191 82.6773 155.471 84.1079C154.649 82.906 153.864 81.6747 153.118 80.4139C153.307 81.81 153.714 83.1608 154.322 84.4084C153.601 83.7075 152.846 83.0479 152.062 82.4324C152.824 83.495 153.545 84.5902 154.225 85.7181L156.813 85.4339C156.067 83.6198 155.515 81.7184 155.17 79.7673Z" fill="#455A64"/>
<path d="M106.936 102.071L109.475 98.8542L112.963 96.986L115.463 98.9391L113.522 101.186L106.936 102.071Z" fill="#E0E0E0"/>
<path d="M106.917 102.081V102.065L109.46 98.8477L112.95 96.9763L115.46 98.9359L113.516 101.189L106.917 102.081ZM109.478 98.8608L106.953 102.058L113.519 101.18L115.451 98.9392L112.962 96.9959L109.478 98.8608Z" fill="#263238"/>
<path d="M118.508 0C118.508 0.404993 110.492 25.4492 110.492 25.4492L114.5 21.4091L108.726 38.9153L112.538 33.6634L106.46 55.8139L110.227 53.3219L106.415 68.8096L109.677 64.7695L106.415 76.3477L132.232 74.4632L126.118 52.6491L129.81 56.6892L125.032 40.7998L127.478 42.1454L121.905 21.6802L124.487 23.4308L118.508 0Z" fill="#455A64"/>
<path d="M121.264 101.167L120.413 60.0141L124.854 55.6474L124.502 54.7884L120.362 58.2602L118.315 28.2123H117.298C117.298 28.2123 116.57 95.3432 115.358 97.6458C114.145 99.9484 111.87 101.176 111.87 101.176L121.264 101.167Z" fill="#DB8A76"/>
<path d="M120.01 99.0437C120.006 98.9991 120.006 98.9543 120.01 98.9097C120.01 98.8118 120.028 98.6844 120.04 98.5211C120.07 98.1662 120.115 97.6665 120.175 97.022C120.293 95.7155 120.476 93.8441 120.63 91.5154C120.825 88.7914 120.878 86.0577 120.789 83.3273C120.732 81.7146 120.594 80.1064 120.377 78.5099C120.142 76.854 119.805 75.1523 119.474 73.4082C119.134 71.709 118.881 69.9906 118.716 68.2609C118.649 67.4367 118.621 66.6093 118.632 65.782C118.649 64.9879 118.705 64.1954 118.797 63.4075C118.975 61.8725 119.242 60.4289 119.483 59.0833C119.724 57.7376 119.94 56.4704 120.085 55.324C120.335 53.5018 120.335 51.6494 120.085 49.8272C120.012 49.3333 119.912 48.8447 119.784 48.364C119.742 48.2072 119.706 48.0831 119.679 47.9917C119.666 47.9489 119.656 47.9053 119.649 47.861C119.668 47.9008 119.684 47.9423 119.697 47.9851L119.817 48.3542C119.961 48.8317 120.073 49.3196 120.154 49.8141C120.43 51.6414 120.449 53.5038 120.208 55.3371C120.082 56.5031 119.871 57.7638 119.637 59.1126C119.402 60.4615 119.14 61.9019 118.969 63.4304C118.884 64.1947 118.824 64.9818 118.809 65.7852C118.794 66.5887 118.83 67.4183 118.896 68.2446C119.065 69.9662 119.318 71.6768 119.655 73.3691C119.983 75.1131 120.32 76.818 120.557 78.4837C120.773 80.087 120.908 81.7017 120.964 83.3208C121.047 86.0574 120.981 88.7971 120.765 91.5252C120.593 93.8539 120.395 95.7319 120.256 97.0317C120.184 97.685 120.13 98.1716 120.088 98.5243C120.07 98.6877 120.052 98.815 120.04 98.913C120.035 98.9577 120.025 99.0016 120.01 99.0437Z" fill="#9A5D53"/>
<path d="M113.303 101.137C113.839 101.163 114.376 101.098 114.895 100.944C116.297 100.462 117.491 99.4444 118.256 98.0801C118.784 97.145 119.178 96.1287 119.426 95.0655C119.707 93.8434 119.908 92.6015 120.028 91.3488C120.371 88.4816 120.418 85.582 120.169 82.7035C120.153 82.2156 120.051 81.7356 119.868 81.2893C119.779 81.0807 119.641 80.9007 119.468 80.7667C119.296 80.645 119.087 80.5984 118.885 80.636C118.684 80.7002 118.498 80.8084 118.338 80.9539C118.179 81.0994 118.048 81.2792 117.955 81.482C117.747 81.8857 117.573 82.3087 117.434 82.7459C116.901 84.3858 116.762 86.1462 117.031 87.8606C117.065 88.2451 117.167 88.6189 117.332 88.9613C117.371 89.0335 117.426 89.0937 117.492 89.136C117.559 89.1783 117.634 89.2014 117.711 89.2029C117.788 89.1942 117.861 89.1678 117.928 89.1255C117.994 89.0833 118.052 89.0262 118.096 88.958C118.198 88.8206 118.282 88.6676 118.343 88.504C118.415 88.344 118.472 88.1774 118.529 88.0141C118.63 87.6952 118.704 87.3673 118.752 87.0343C118.917 85.8964 118.755 84.7311 118.289 83.6963H118.367C117.945 84.3868 117.718 85.1963 117.714 86.0251C117.713 86.2435 117.726 86.4618 117.753 86.6783C117.766 86.7506 117.775 86.8236 117.78 86.8971C117.705 86.6158 117.666 86.3245 117.666 86.0316C117.649 85.1867 117.867 84.3559 118.292 83.6474L118.334 83.5755L118.37 83.6539C118.858 84.7032 119.035 85.8911 118.875 87.0539C118.793 87.7685 118.564 88.4539 118.204 89.0592C118.147 89.1438 118.074 89.2144 117.99 89.2667C117.906 89.319 117.813 89.3518 117.717 89.363C117.616 89.3621 117.516 89.3335 117.428 89.2798C117.34 89.2262 117.265 89.1492 117.212 89.056C117.031 88.6949 116.919 88.2986 116.88 87.89C116.597 86.1491 116.732 84.3583 117.272 82.6904C117.412 82.2384 117.591 81.8011 117.804 81.384C117.92 81.1704 118.063 80.9758 118.229 80.8059C118.401 80.6226 118.618 80.4978 118.854 80.4466C119.099 80.4019 119.351 80.459 119.559 80.6066C119.757 80.7578 119.916 80.9627 120.019 81.2011C120.215 81.667 120.327 82.1691 120.35 82.6806C120.598 85.5737 120.546 88.488 120.193 91.3683C120.065 92.6284 119.855 93.877 119.565 95.1047C119.309 96.1802 118.903 97.2068 118.361 98.1487C117.573 99.5301 116.345 100.549 114.91 101.01C114.517 101.125 114.112 101.18 113.706 101.173C113.568 101.173 113.462 101.154 113.405 101.15C113.371 101.148 113.337 101.144 113.303 101.137Z" fill="#9A5D53"/>
<path d="M118.857 54.465C118.806 54.4263 118.758 54.3838 118.713 54.3376L118.279 53.9228H118.316C118.019 54.8055 118.035 55.7763 118.361 56.6467C118.411 56.7944 118.48 56.9332 118.568 57.0583C118.608 57.1205 118.664 57.1692 118.728 57.1987C118.793 57.2282 118.863 57.2372 118.932 57.2248C119.001 57.197 119.064 57.1535 119.116 57.0971C119.168 57.0408 119.208 56.9729 119.233 56.8982C119.307 56.734 119.354 56.5572 119.372 56.3757C119.541 55.0948 119.461 53.7898 119.137 52.5446C119.083 52.3189 119.007 52.1 118.911 51.8913C118.819 51.6793 118.674 51.4994 118.493 51.372C118.403 51.3109 118.299 51.2786 118.192 51.2786C118.086 51.2786 117.982 51.3109 117.891 51.372C117.704 51.5096 117.559 51.7038 117.473 51.9305C117.376 52.1695 117.303 52.4192 117.256 52.6752C117.19 52.93 117.151 53.1978 117.1 53.4623C116.745 55.6179 116.949 57.9858 117.181 60.4191C117.449 63.1701 117.568 65.9357 117.539 68.7018C117.512 71.2526 117.356 73.5454 117.163 75.4626C116.97 77.3798 116.739 78.9181 116.561 79.9796C116.477 80.5087 116.393 80.9169 116.342 81.1978L116.278 81.5244C116.273 81.5613 116.264 81.5975 116.251 81.6322C116.247 81.5953 116.247 81.558 116.251 81.5212C116.251 81.4395 116.281 81.335 116.299 81.1946C116.339 80.9169 116.414 80.5054 116.486 79.973C116.649 78.9116 116.856 77.3602 117.037 75.4528C117.217 73.5454 117.359 71.2526 117.377 68.7084C117.397 65.9485 117.273 63.1896 117.004 60.4452C116.772 58.012 116.57 55.6245 116.934 53.4395C116.989 53.1684 117.028 52.8973 117.097 52.636C117.149 52.3715 117.226 52.1133 117.326 51.8652C117.426 51.6075 117.593 51.3872 117.807 51.2316C117.92 51.1586 118.05 51.1201 118.182 51.1201C118.313 51.1201 118.443 51.1586 118.556 51.2316C118.762 51.3752 118.926 51.579 119.029 51.8195C119.128 52.0422 119.207 52.2752 119.263 52.5152C119.377 52.965 119.46 53.4236 119.51 53.8869C119.603 54.7253 119.591 55.5735 119.474 56.4083C119.454 56.6044 119.401 56.7949 119.318 56.9701C119.282 57.0613 119.228 57.1428 119.16 57.2088C119.092 57.2748 119.011 57.3238 118.923 57.3522C118.835 57.3669 118.745 57.3548 118.663 57.3174C118.58 57.2799 118.509 57.2185 118.457 57.1399C118.366 57.0034 118.293 56.854 118.24 56.6957C118.052 56.1768 117.972 55.6192 118.006 55.0627C118.029 54.6737 118.109 54.2911 118.243 53.9294V53.8935L118.267 53.9196L118.686 54.3507C118.746 54.3821 118.804 54.4204 118.857 54.465Z" fill="#9A5D53"/>
<path d="M113.787 27.4971C113.302 33.2062 116.332 38.2751 117.539 40.79C117.734 39.4647 117.711 38.1124 117.473 36.7956C117.559 37.3545 117.771 37.8817 118.09 38.3306L120.461 42.2924C120.059 40.5309 119.742 38.7552 119.51 36.9654C120.655 38.817 122.357 40.1802 124.324 40.8226C124.324 40.8226 121.014 38.6964 120.611 34.3264C120.208 29.9564 120.972 27.4971 120.972 27.4971" fill="#455A64"/>
<path d="M120.964 27.4971C120.966 27.5198 120.966 27.5429 120.964 27.5657C120.964 27.6179 120.937 27.68 120.919 27.7649C120.88 27.9413 120.828 28.2025 120.771 28.5487C120.621 29.5432 120.545 30.5491 120.543 31.5568C120.543 32.21 120.564 32.922 120.618 33.6961C120.659 34.5318 120.803 35.3577 121.045 36.1522C121.655 38.0387 122.818 39.6563 124.355 40.7573L124.752 41.0415L124.298 40.8945C122.321 40.2434 120.612 38.8717 119.459 37.0111L119.601 36.9556C119.787 38.3208 120.025 39.7383 120.32 41.1754L120.555 42.2728L120.654 42.7431L120.413 42.3381L118.764 39.5848L117.955 38.2523C117.663 37.8252 117.472 37.3275 117.398 36.8021L117.546 36.7792C117.784 38.1061 117.805 39.4681 117.609 40.8031L117.576 41.0219L117.476 40.8259C116.6 39.1572 115.807 37.439 115.099 35.6786C114.561 34.3044 114.167 32.8693 113.923 31.4C113.77 30.449 113.701 29.4845 113.715 28.5194C113.736 28.1927 113.751 27.938 113.763 27.7584C113.763 27.6767 113.763 27.6114 113.763 27.5624C113.763 27.5134 113.763 27.4971 113.763 27.4971C113.764 27.5188 113.764 27.5406 113.763 27.5624C113.763 27.6147 113.763 27.6767 113.763 27.7584C113.763 27.9413 113.763 28.1927 113.739 28.5194C113.74 29.4802 113.822 30.4389 113.983 31.3837C114.24 32.8424 114.644 34.2661 115.186 35.6296C115.906 37.3823 116.709 39.0928 117.594 40.7541L117.461 40.7769C117.651 39.461 117.628 38.1191 117.392 36.8119L117.539 36.789C117.611 37.2876 117.794 37.7597 118.072 38.1641L118.869 39.4934L120.518 42.2434L120.377 42.312L120.142 41.2113C119.841 39.771 119.61 38.3502 119.423 36.9654L119.375 36.5964L119.565 36.9066C120.697 38.7373 122.376 40.0889 124.319 40.7345L124.265 40.8749C122.698 39.7551 121.517 38.1036 120.907 36.1783C120.665 35.374 120.524 34.5379 120.488 33.6928C120.437 32.9122 120.416 32.1937 120.431 31.5405C120.442 30.5292 120.532 29.5208 120.699 28.5259C120.762 28.1993 120.822 27.9184 120.867 27.7453C120.892 27.6571 120.91 27.5918 120.925 27.5493C120.937 27.5312 120.95 27.5137 120.964 27.4971Z" fill="#263238"/>
<path d="M123.813 96.986L117.672 98.0312L110.474 102.617L124.662 103.479L127.52 99.478L123.813 96.986Z" fill="#455A64"/>
<path d="M129.651 102.081C129.608 102.056 129.568 102.027 129.53 101.993L129.203 101.722L127.978 100.686L123.765 97.0481L123.825 97.0677L120.332 97.6654L117.684 98.1063H117.711L112.538 101.372L111.034 102.31L110.625 102.555C110.58 102.588 110.532 102.613 110.48 102.63C110.522 102.592 110.566 102.558 110.613 102.529L111.01 102.261L112.514 101.281L117.651 97.9724L120.299 97.5184L123.792 96.9305H123.825L123.849 96.9534L128.026 100.638L129.23 101.709L129.53 102.003C129.573 102.023 129.614 102.05 129.651 102.081Z" fill="#263238"/>
<g opacity="0.2">
<path opacity="0.2" d="M162.212 97.1265C162.23 97.1787 161.571 97.489 160.352 97.9724C159.133 98.4558 157.343 99.0926 155.134 99.8079C152.926 100.523 150.257 101.317 147.26 102.068C146.475 102.27 145.674 102.389 144.868 102.424C143.99 102.469 143.115 102.293 142.31 101.911C141.459 101.477 140.764 100.752 140.33 99.8471C140.103 99.3682 139.986 98.8373 139.987 98.299C139.987 98.1618 139.987 98.0214 140.017 97.8875C140.047 97.7535 140.065 97.6098 140.098 97.4857C140.165 97.2429 140.243 97.0041 140.333 96.7705C140.502 96.3512 140.649 95.9215 140.772 95.4836C140.819 95.3055 140.838 95.1199 140.826 94.9349C140.815 94.7973 140.758 94.6687 140.667 94.5724C140.498 94.3634 140.155 94.3176 139.737 94.3078C139.319 94.298 138.907 94.2882 138.494 94.3078C136.909 94.3534 135.327 94.4875 133.755 94.7096C130.746 95.1178 127.981 95.5457 125.631 95.5849C125.039 95.6513 124.442 95.5582 123.891 95.3138C123.823 95.2761 123.758 95.2324 123.696 95.1831C123.664 95.1621 123.634 95.1381 123.606 95.1113L123.56 95.0721C123.537 95.048 123.516 95.0217 123.497 94.9937C123.424 94.8891 123.39 94.7586 123.401 94.6279C123.406 94.5369 123.426 94.4475 123.458 94.3634C123.557 94.1028 123.687 93.8578 123.846 93.635C124.339 92.9552 124.88 92.3185 125.465 91.7309C126.413 90.7511 126.988 90.2938 127.021 90.3363C127.054 90.3788 126.554 90.934 125.685 91.9693C125.153 92.586 124.659 93.2407 124.207 93.929C124.083 94.1198 123.982 94.3273 123.907 94.5463C123.893 94.5873 123.885 94.6302 123.882 94.6736C123.882 94.6932 123.882 94.6932 123.882 94.703C123.875 94.7014 123.868 94.7014 123.861 94.703H123.843L123.861 94.6802L123.894 94.703L123.958 94.752C124.003 94.7835 124.05 94.8119 124.099 94.8369C124.582 95.0203 125.098 95.0741 125.604 94.9937C127.896 94.8794 130.602 94.396 133.641 93.942C135.237 93.6946 136.844 93.542 138.455 93.4848C138.877 93.4652 139.304 93.4848 139.734 93.4848C139.971 93.4848 140.208 93.5089 140.441 93.5566C140.724 93.6163 140.985 93.7651 141.19 93.9845C141.409 94.2174 141.547 94.5257 141.579 94.8565C141.602 95.1431 141.578 95.4319 141.506 95.709C141.376 96.1826 141.219 96.6472 141.037 97.1003C140.958 97.3075 140.888 97.519 140.829 97.7339C140.799 97.8385 140.79 97.9332 140.769 98.0312C140.748 98.1291 140.769 98.2271 140.745 98.3251C140.746 98.7294 140.835 99.1277 141.004 99.4878C141.359 100.225 141.925 100.818 142.617 101.176C143.313 101.508 144.069 101.663 144.828 101.63C145.588 101.598 146.344 101.488 147.085 101.304C150.055 100.605 152.73 99.8667 154.96 99.2331C157.19 98.5995 158.992 98.041 160.235 97.6588C161.477 97.2767 162.188 97.0644 162.212 97.1265Z" fill="white"/>
</g>
</svg>
