<svg width="20" height="23" viewBox="0 0 20 23" fill="none" xmlns="http://www.w3.org/2000/svg">
<path fill-rule="evenodd" clip-rule="evenodd" d="M11.8175 3.45653C10.8018 2.48194 9.19819 2.48194 8.18253 3.45653L2.78502 8.63575C2.65277 8.76264 2.56382 8.92794 2.53076 9.10822C1.88427 12.6337 1.83655 16.243 2.3896 19.7843L2.52088 20.6249H5.99341V13.3784C5.99341 12.8951 6.38516 12.5034 6.86841 12.5034H13.1316C13.6148 12.5034 14.0066 12.8951 14.0066 13.3784V20.6249H17.4791L17.6104 19.7843C18.1634 16.243 18.1157 12.6337 17.4692 9.10822C17.4362 8.92794 17.3472 8.76264 17.215 8.63575L11.8175 3.45653ZM6.97089 2.19382C8.66366 0.569509 11.3363 0.569509 13.0291 2.19382L18.4266 7.37304C18.8239 7.7543 19.0912 8.25094 19.1905 8.79257C19.8725 12.5115 19.9228 16.3187 19.3394 20.0543L19.1285 21.4047C19.0413 21.9632 18.5603 22.3749 17.9951 22.3749H13.1316C12.6483 22.3749 12.2566 21.9831 12.2566 21.4999V14.2534H7.74341V21.4999C7.74341 21.9831 7.35166 22.3749 6.86841 22.3749H2.0049C1.43967 22.3749 0.958666 21.9632 0.871451 21.4047L0.660562 20.0543C0.0771724 16.3187 0.127511 12.5115 0.809463 8.79257C0.908785 8.25094 1.17605 7.7543 1.57338 7.37304L6.97089 2.19382Z" fill="#9A9A9A"/>
</svg>
