<svg width="28" height="28" viewBox="0 0 28 28" fill="none" xmlns="http://www.w3.org/2000/svg">
<path fill-rule="evenodd" clip-rule="evenodd" d="M15.8175 6.45653C14.8018 5.48194 13.1982 5.48194 12.1825 6.45653L6.78502 11.6357C6.65277 11.7626 6.56382 11.9279 6.53076 12.1082C5.88427 15.6337 5.83655 19.243 6.3896 22.7843L6.52088 23.6249H9.99341V16.3784C9.99341 15.8951 10.3852 15.5034 10.8684 15.5034H17.1316C17.6148 15.5034 18.0066 15.8951 18.0066 16.3784V23.6249H21.4791L21.6104 22.7843C22.1634 19.243 22.1157 15.6337 21.4692 12.1082C21.4362 11.9279 21.3472 11.7626 21.215 11.6357L15.8175 6.45653ZM10.9709 5.19382C12.6637 3.56951 15.3363 3.56951 17.0291 5.19382L22.4266 10.373C22.8239 10.7543 23.0912 11.2509 23.1905 11.7926C23.8725 15.5115 23.9228 19.3187 23.3394 23.0543L23.1285 24.4047C23.0413 24.9632 22.5603 25.3749 21.9951 25.3749H17.1316C16.6483 25.3749 16.2566 24.9831 16.2566 24.4999V17.2534H11.7434V24.4999C11.7434 24.9831 11.3517 25.3749 10.8684 25.3749H6.0049C5.43967 25.3749 4.95867 24.9632 4.87145 24.4047L4.66056 23.0543C4.07717 19.3187 4.12751 15.5115 4.80946 11.7926C4.90878 11.2509 5.17605 10.7543 5.57338 10.373L10.9709 5.19382Z" fill="#9A9A9A"/>
</svg>
