<svg width="26" height="23" viewBox="0 0 26 23" fill="none" xmlns="http://www.w3.org/2000/svg">
<path fill-rule="evenodd" clip-rule="evenodd" d="M12.5467 0.852356C12.8308 0.771512 13.1304 0.771438 13.4145 0.852046C14.0183 1.02339 14.6276 1.18232 15.239 1.34177C18.11 2.09055 21.0257 2.85101 23.6198 4.96386L24.8144 5.93685C25.299 6.33151 25.5414 6.9157 25.5416 7.49999V15.6667C25.5416 16.1499 25.1498 16.5417 24.6666 16.5417C24.1833 16.5417 23.7916 16.1499 23.7916 15.6667V9.89945L23.6015 10.0546C22.7026 10.7881 21.7648 11.3576 20.8036 11.82C20.8495 11.9263 20.8749 12.0435 20.8749 12.1667V17.1762C20.8749 18.4984 20.0638 19.6852 18.832 20.1654L14.1653 21.9848C13.4158 22.277 12.584 22.277 11.8345 21.9848L7.16787 20.1654C5.93601 19.6852 5.12492 18.4984 5.12492 17.1762V12.1667C5.12492 12.0404 5.15166 11.9204 5.1998 11.812C4.23106 11.3469 3.28593 10.774 2.38004 10.0361L1.18544 9.06313C0.216336 8.27381 0.215827 6.7264 1.18409 5.93628L2.39833 4.94542C4.97368 2.84387 7.86883 2.08795 10.7185 1.3439C11.3312 1.18392 11.9419 1.02449 12.5467 0.852356ZM23.7916 7.50069C23.7915 7.39558 23.7491 7.32618 23.7092 7.29373L22.5146 6.32074C19.9999 4.58332 17.7592 3.81705 14.9131 3.06918C14.2873 2.90473 13.6438 2.73563 12.9812 2.54818C12.3157 2.73698 11.6698 2.90689 11.0419 3.07208C8.21868 3.81482 5.75868 4.462 3.50475 6.30128L2.2905 7.29213C2.25062 7.32468 2.20821 7.39419 2.20825 7.49929C2.20829 7.6044 2.25076 7.6738 2.2906 7.70625L3.4852 8.67924C5.75824 10.5306 8.24068 11.1829 11.0867 11.9308C11.7125 12.0953 12.356 12.2643 13.0186 12.4518C13.6841 12.263 14.3299 12.0931 14.9578 11.9279C17.781 11.1852 20.2412 10.538 22.4951 8.6987L23.7093 7.70785C23.7492 7.67533 23.7915 7.60562 23.7916 7.50069ZM15.2813 13.6561C16.5644 13.3211 17.8567 12.9836 19.1249 12.5221V17.1762C19.1249 17.7772 18.7562 18.3167 18.1963 18.535L13.5296 20.3543C13.189 20.4871 12.8109 20.4871 12.4702 20.3543L7.80353 18.535C7.2436 18.3167 6.87492 17.7772 6.87492 17.1762V12.5122C8.15682 12.9791 9.4634 13.3198 10.7608 13.6582C11.3722 13.8177 11.9816 13.9766 12.5854 14.1479C12.8694 14.2285 13.169 14.2285 13.4531 14.1476C14.0579 13.9755 14.6686 13.816 15.2813 13.6561Z" fill="#9A9A9A"/>
</svg>
