<svg width="407" height="335" viewBox="0 0 407 335" fill="none" xmlns="http://www.w3.org/2000/svg">
<g filter="url(#filter0_d_201_78)">
<path d="M334.589 209.749C334.211 207.221 333.746 204.717 333.218 202.244L309.512 213.735L334.589 209.749Z" fill="#334272"/>
<path d="M217.403 121.798C217.403 121.798 147.306 149.711 109.415 163.25C103.1 173.369 98.3051 184.36 95.1834 195.872L155.371 169.574L107.746 200.731L142.4 194.675L141.533 198.999L235.021 173.906L99.9562 235.386L120.733 216.334L90.891 227.754V227.99C90.8724 243.099 93.655 258.08 99.0977 272.174L231.548 221.532L158.805 259.636L288.696 212.868L254.041 220.665L302.542 196.415H275.74L325.595 178.679C323.951 174.951 322.134 171.325 320.144 167.802L220.317 201.613L313.347 157.091C302.546 141.863 288.408 129.306 272.012 120.378C255.616 111.451 237.396 106.388 218.745 105.578C200.093 104.768 181.503 108.232 164.395 115.705C147.287 123.177 132.113 134.461 120.032 148.695L217.403 121.798Z" fill="#334272"/>
<path d="M302.589 261.376C300.384 261.376 320.239 250.87 334.991 243.222C336.235 233.169 336.235 223 334.991 212.947L210.795 264.826L243.685 239.717L129.877 281.279H323.767C327.665 273.213 330.655 264.739 332.683 256.013C322.263 258.053 304.983 261.376 302.589 261.376Z" fill="#334272"/>
<g opacity="0.3">
<path opacity="0.3" d="M334.589 209.749C334.211 207.221 333.746 204.717 333.218 202.244L309.512 213.735L334.589 209.749Z" fill="white"/>
<path opacity="0.3" d="M217.403 121.798C217.403 121.798 147.306 149.711 109.415 163.25C103.1 173.369 98.3051 184.36 95.1834 195.872L155.371 169.574L107.746 200.731L142.4 194.675L141.533 198.999L235.021 173.906L99.9562 235.386L120.733 216.334L90.891 227.754V227.99C90.8724 243.099 93.655 258.08 99.0977 272.174L231.548 221.532L158.805 259.636L288.696 212.868L254.041 220.665L302.542 196.415H275.74L325.595 178.679C323.951 174.951 322.134 171.325 320.144 167.802L220.317 201.613L313.347 157.091C302.546 141.863 288.408 129.306 272.012 120.378C255.616 111.451 237.396 106.388 218.745 105.578C200.093 104.768 181.503 108.232 164.395 115.705C147.287 123.177 132.113 134.461 120.032 148.695L217.403 121.798Z" fill="white"/>
<path opacity="0.3" d="M302.589 261.376C300.384 261.376 320.239 250.87 334.991 243.222C336.235 233.169 336.235 223 334.991 212.947L210.795 264.826L243.685 239.717L129.877 281.279H323.767C327.665 273.213 330.655 264.739 332.683 256.013C322.263 258.053 304.983 261.376 302.589 261.376Z" fill="white"/>
</g>
<path d="M180.771 86.7426C192.298 86.7426 201.643 77.3982 201.643 65.8713C201.643 54.3444 192.298 45 180.771 45C169.245 45 159.9 54.3444 159.9 65.8713C159.9 77.3982 169.245 86.7426 180.771 86.7426Z" fill="white"/>
<path d="M349.711 281.279H357.587" stroke="#2E353A" stroke-miterlimit="10"/>
<path d="M90.5917 281.279H343.41" stroke="#2E353A" stroke-miterlimit="10"/>
<path d="M94.7266 281.279L136.698 246.821C136.943 246.648 137.221 246.526 137.516 246.464C137.81 246.402 138.113 246.4 138.408 246.459C138.703 246.518 138.983 246.636 139.23 246.807C139.478 246.978 139.688 247.197 139.848 247.452C141.1 249.326 138.596 262.487 138.596 262.487L145.487 263.117L146.739 267.496L151.126 271.883L151.749 281.279H94.7266Z" fill="#2E353A" stroke="#2E353A" stroke-miterlimit="10"/>
<path d="M60.2614 279.822L87.205 260.4C87.205 260.4 91.5919 259.777 90.9619 264.156C90.3318 268.535 84.0704 273.56 84.0704 273.56L84.7005 278.569L85.6771 281.279H54L60.2614 279.822Z" fill="#2E353A" stroke="#2E353A" stroke-miterlimit="10"/>
</g>
<g filter="url(#filter1_d_201_78)">
<path d="M203.417 184.333H212.583V188.875H203.417V184.333Z" fill="url(#paint0_angular_201_78)"/>
<path d="M203.417 166.167H212.583V170.708H203.417V166.167Z" fill="url(#paint1_angular_201_78)"/>
<path d="M203.417 193.417H212.583V197.958H203.417V193.417Z" fill="url(#paint2_angular_201_78)"/>
<path d="M249.25 202.5V188.875C235.277 188.872 221.74 193.69 210.961 202.5H205.039C194.26 193.69 180.723 188.872 166.75 188.875V202.5C165.534 202.5 164.369 202.978 163.509 203.83C162.65 204.682 162.167 205.837 162.167 207.042V216.125C162.167 217.33 162.65 218.485 163.509 219.336C164.369 220.188 165.534 220.667 166.75 220.667V238.833C182.068 238.819 196.816 244.584 208 254.956C219.195 244.603 233.936 238.841 249.25 238.833V220.667C250.466 220.667 251.631 220.188 252.491 219.336C253.35 218.485 253.833 217.33 253.833 216.125V207.042C253.833 205.837 253.35 204.682 252.491 203.83C251.631 202.978 250.466 202.5 249.25 202.5Z" fill="url(#paint3_angular_201_78)"/>
<path d="M194.25 170.708C196.781 170.708 198.833 168.675 198.833 166.167C198.833 163.658 196.781 161.625 194.25 161.625C191.719 161.625 189.667 163.658 189.667 166.167C189.667 168.675 191.719 170.708 194.25 170.708Z" fill="url(#paint4_angular_201_78)"/>
<path d="M221.75 170.708C224.281 170.708 226.333 168.675 226.333 166.167C226.333 163.658 224.281 161.625 221.75 161.625C219.219 161.625 217.167 163.658 217.167 166.167C217.167 168.675 219.219 170.708 221.75 170.708Z" fill="url(#paint5_angular_201_78)"/>
<path d="M226.333 184.333H189.667C186.021 184.33 182.526 182.893 179.948 180.339C177.37 177.784 175.92 174.321 175.917 170.708V161.625C175.92 158.013 177.37 154.549 179.948 151.995C182.526 149.44 186.021 148.004 189.667 148H226.333C229.979 148.004 233.474 149.44 236.052 151.995C238.63 154.549 240.08 158.013 240.083 161.625V170.708C240.08 174.321 238.63 177.784 236.052 180.339C233.474 182.893 229.979 184.33 226.333 184.333ZM189.667 157.083C188.451 157.085 187.286 157.563 186.427 158.415C185.568 159.266 185.085 160.421 185.083 161.625V170.708C185.085 171.912 185.568 173.067 186.427 173.918C187.286 174.77 188.451 175.249 189.667 175.25H226.333C227.549 175.249 228.714 174.77 229.573 173.918C230.432 173.067 230.915 171.912 230.917 170.708V161.625C230.915 160.421 230.432 159.266 229.573 158.415C228.714 157.563 227.549 157.085 226.333 157.083H189.667Z" fill="url(#paint6_angular_201_78)"/>
</g>
<defs>
<filter id="filter0_d_201_78" x="0.645233" y="0" width="405.941" height="334.779" filterUnits="userSpaceOnUse" color-interpolation-filters="sRGB">
<feFlood flood-opacity="0" result="BackgroundImageFix"/>
<feColorMatrix in="SourceAlpha" type="matrix" values="0 0 0 0 0 0 0 0 0 0 0 0 0 0 0 0 0 0 127 0" result="hardAlpha"/>
<feOffset dy="4"/>
<feGaussianBlur stdDeviation="24.5"/>
<feComposite in2="hardAlpha" operator="out"/>
<feColorMatrix type="matrix" values="0 0 0 0 0 0 0 0 0 0 0 0 0 0 0 0 0 0 0.25 0"/>
<feBlend mode="normal" in2="BackgroundImageFix" result="effect1_dropShadow_201_78"/>
<feBlend mode="normal" in="SourceGraphic" in2="effect1_dropShadow_201_78" result="shape"/>
</filter>
<filter id="filter1_d_201_78" x="94" y="93" width="228" height="227" filterUnits="userSpaceOnUse" color-interpolation-filters="sRGB">
<feFlood flood-opacity="0" result="BackgroundImageFix"/>
<feColorMatrix in="SourceAlpha" type="matrix" values="0 0 0 0 0 0 0 0 0 0 0 0 0 0 0 0 0 0 127 0" result="hardAlpha"/>
<feOffset dy="4"/>
<feGaussianBlur stdDeviation="29.5"/>
<feComposite in2="hardAlpha" operator="out"/>
<feColorMatrix type="matrix" values="0 0 0 0 0 0 0 0 0 0 0 0 0 0 0 0 0 0 0.25 0"/>
<feBlend mode="normal" in2="BackgroundImageFix" result="effect1_dropShadow_201_78"/>
<feBlend mode="normal" in="SourceGraphic" in2="effect1_dropShadow_201_78" result="shape"/>
</filter>
<radialGradient id="paint0_angular_201_78" cx="0" cy="0" r="1" gradientUnits="userSpaceOnUse" gradientTransform="translate(208 186.604) rotate(90) scale(2.27083 4.58333)">
<stop offset="0.209826" stop-color="#93DAFF"/>
<stop offset="0.782755" stop-color="#FF61A4"/>
</radialGradient>
<radialGradient id="paint1_angular_201_78" cx="0" cy="0" r="1" gradientUnits="userSpaceOnUse" gradientTransform="translate(208 168.438) rotate(90) scale(2.27083 4.58333)">
<stop offset="0.209826" stop-color="#93DAFF"/>
<stop offset="0.782755" stop-color="#FF61A4"/>
</radialGradient>
<radialGradient id="paint2_angular_201_78" cx="0" cy="0" r="1" gradientUnits="userSpaceOnUse" gradientTransform="translate(208 195.688) rotate(90) scale(2.27084 4.58333)">
<stop offset="0.209826" stop-color="#93DAFF"/>
<stop offset="0.782755" stop-color="#FF61A4"/>
</radialGradient>
<radialGradient id="paint3_angular_201_78" cx="0" cy="0" r="1" gradientUnits="userSpaceOnUse" gradientTransform="translate(208 221.916) rotate(90) scale(33.0406 45.8333)">
<stop offset="0.209826" stop-color="#93DAFF"/>
<stop offset="0.782755" stop-color="#FF61A4"/>
</radialGradient>
<radialGradient id="paint4_angular_201_78" cx="0" cy="0" r="1" gradientUnits="userSpaceOnUse" gradientTransform="translate(194.25 166.167) rotate(90) scale(4.54167 4.58333)">
<stop offset="0.209826" stop-color="#93DAFF"/>
<stop offset="0.782755" stop-color="#FF61A4"/>
</radialGradient>
<radialGradient id="paint5_angular_201_78" cx="0" cy="0" r="1" gradientUnits="userSpaceOnUse" gradientTransform="translate(221.75 166.167) rotate(90) scale(4.54167 4.58334)">
<stop offset="0.209826" stop-color="#93DAFF"/>
<stop offset="0.782755" stop-color="#FF61A4"/>
</radialGradient>
<radialGradient id="paint6_angular_201_78" cx="0" cy="0" r="1" gradientUnits="userSpaceOnUse" gradientTransform="translate(208 166.167) rotate(90) scale(18.1667 32.0833)">
<stop offset="0.209826" stop-color="#93DAFF"/>
<stop offset="0.782755" stop-color="#FF61A4"/>
</radialGradient>
</defs>
</svg>
