<svg width="24" height="25" viewBox="0 0 24 25" fill="none" xmlns="http://www.w3.org/2000/svg">
<g clip-path="url(#clip0_3_621)">
<path d="M23.9885 12.7339C23.9885 11.7096 23.9069 10.9622 23.7301 10.1871H12.239V14.81H18.984C18.8481 15.9589 18.1138 17.689 16.4819 18.8516L16.459 19.0064L20.0923 21.8712L20.344 21.8968C22.6558 19.7237 23.9885 16.5263 23.9885 12.7339Z" fill="#4285F4"/>
<path d="M12.239 24.9141C15.5435 24.9141 18.3177 23.8068 20.344 21.8968L16.4819 18.8516C15.4484 19.5852 14.0612 20.0973 12.239 20.0973C9.00248 20.0973 6.25551 17.9243 5.27629 14.9208L5.13276 14.9332L1.35483 17.9091L1.30542 18.0489C3.31804 22.1181 7.45214 24.9141 12.239 24.9141Z" fill="#34A853"/>
<path d="M5 14.9399C4.75516 14.1816 4.61346 13.3692 4.61346 12.5297C4.61346 11.6901 4.75516 10.8777 4.98712 10.1195L4.98063 9.95798L1.3557 7L1.2371 7.05928C0.45104 8.71124 0 10.5663 0 12.5297C0 14.4931 0.45104 16.348 1.2371 18L5 14.9399Z" fill="#FBBC05"/>
<path d="M12.239 4.8167C14.5372 4.8167 16.0875 5.8271 16.9714 6.67147L20.4255 3.23884C18.3042 1.23187 15.5435 0 12.239 0C7.45214 0 3.31804 2.7959 1.30542 6.86517L5.2627 9.99332C6.25551 6.98979 9.00248 4.8167 12.239 4.8167Z" fill="#EB4335"/>
</g>
<defs>
<clipPath id="clip0_3_621">
<rect width="24" height="25" fill="white"/>
</clipPath>
</defs>
</svg>
