<svg width="37" height="37" viewBox="0 0 37 37" fill="none" xmlns="http://www.w3.org/2000/svg">
<path d="M26.2083 20.0417H13.4895L18.4999 25.0521L17.4763 26.2083L10.5388 19.2708L17.4763 12.3333L18.4999 13.4896L13.4895 18.5H26.2083V20.0417ZM3.08325 19.2708C3.08325 17.3475 3.46208 15.443 4.1981 13.6661C4.93412 11.8892 6.01293 10.2747 7.37292 8.91467C8.73291 7.55467 10.3475 6.47587 12.1244 5.73985C13.9013 5.00383 15.8058 4.625 17.7291 4.625C19.6524 4.625 21.5569 5.00383 23.3338 5.73985C25.1107 6.47587 26.7253 7.55467 28.0853 8.91467C29.4452 10.2747 30.524 11.8892 31.2601 13.6661C31.9961 15.443 32.3749 17.3475 32.3749 19.2708C32.3749 23.1552 30.8319 26.8804 28.0853 29.627C25.3386 32.3736 21.6134 33.9167 17.7291 33.9167C13.8448 33.9167 10.1195 32.3736 7.37292 29.627C4.62629 26.8804 3.08325 23.1552 3.08325 19.2708ZM4.62492 19.2708C4.62492 22.7463 6.00553 26.0794 8.46304 28.5369C10.9205 30.9944 14.2536 32.375 17.7291 32.375C21.2045 32.375 24.5376 30.9944 26.9951 28.5369C29.4526 26.0794 30.8333 22.7463 30.8333 19.2708C30.8333 15.7954 29.4526 12.4623 26.9951 10.0048C24.5376 7.54728 21.2045 6.16667 17.7291 6.16667C14.2536 6.16667 10.9205 7.54728 8.46304 10.0048C6.00553 12.4623 4.62492 15.7954 4.62492 19.2708Z" fill="#F0F0F0"/>
</svg>
