<svg width="28" height="28" viewBox="0 0 28 28" fill="none" xmlns="http://www.w3.org/2000/svg">
<g id="Outline/Status/Notification">
<path id="Icon" fill-rule="evenodd" clip-rule="evenodd" d="M15.1666 3.49992C15.1666 2.85559 14.6442 2.33325 13.9999 2.33325C13.3556 2.33325 12.8332 2.85559 12.8332 3.49992V4.37492H12.1829C9.58699 4.37492 7.43845 6.39327 7.27641 8.98412L7.01857 13.1065C6.92027 14.6782 6.3926 16.1928 5.49303 17.4854C4.68023 18.6533 5.40382 20.2663 6.81657 20.4359L10.7916 20.9129V22.1666C10.7916 23.9385 12.228 25.3749 13.9999 25.3749C15.7718 25.3749 17.2082 23.9385 17.2082 22.1666V20.9129L21.1832 20.4359C22.596 20.2663 23.3195 18.6533 22.5067 17.4854C21.6072 16.1928 21.0795 14.6782 20.9812 13.1065L20.7234 8.98412C20.5613 6.39327 18.4128 4.37492 15.8169 4.37492H15.1666V3.49992ZM12.1829 6.12492C10.5111 6.12492 9.12736 7.42479 9.02299 9.09336L8.76516 13.2157C8.64686 15.107 8.0119 16.9297 6.92941 18.4851C6.87066 18.5695 6.92296 18.6861 7.02508 18.6983L11.3857 19.2216C13.1223 19.43 14.8775 19.43 16.6141 19.2216L20.9747 18.6983C21.0768 18.6861 21.1291 18.5695 21.0704 18.4851C19.9879 16.9297 19.3529 15.1071 19.2346 13.2157L18.9768 9.09336C18.8724 7.42479 17.4887 6.12492 15.8169 6.12492H12.1829ZM13.9999 23.6249C13.1945 23.6249 12.5416 22.972 12.5416 22.1666V21.2916H15.4582V22.1666C15.4582 22.972 14.8053 23.6249 13.9999 23.6249Z" fill="#9A9A9A"/>
</g>
</svg>
