<svg width="18" height="24" viewBox="0 0 18 24" fill="none" xmlns="http://www.w3.org/2000/svg">
<path fill-rule="evenodd" clip-rule="evenodd" d="M10.1666 1.49992C10.1666 0.855586 9.64422 0.333252 8.99989 0.333252C8.35556 0.333252 7.83322 0.855586 7.83322 1.49992V2.37492H7.1829C4.58699 2.37492 2.43845 4.39327 2.27641 6.98412L2.01857 11.1065C1.92027 12.6782 1.3926 14.1928 0.493026 15.4854C-0.31977 16.6533 0.403821 18.2663 1.81657 18.4359L5.79156 18.9129V20.1666C5.79156 21.9385 7.22798 23.3749 8.99989 23.3749C10.7718 23.3749 12.2082 21.9385 12.2082 20.1666V18.9129L16.1832 18.4359C17.596 18.2663 18.3195 16.6533 17.5067 15.4854C16.6072 14.1928 16.0795 12.6782 15.9812 11.1065L15.7234 6.98412C15.5613 4.39327 13.4128 2.37492 10.8169 2.37492H10.1666V1.49992ZM7.1829 4.12492C5.51107 4.12492 4.12736 5.42479 4.02299 7.09336L3.76516 11.2157C3.64686 13.107 3.0119 14.9297 1.92941 16.4851C1.87066 16.5695 1.92296 16.6861 2.02508 16.6983L6.38568 17.2216C8.12225 17.43 9.87752 17.43 11.6141 17.2216L15.9747 16.6983C16.0768 16.6861 16.1291 16.5695 16.0704 16.4851C14.9879 14.9297 14.3529 13.1071 14.2346 11.2157L13.9768 7.09336C13.8724 5.42479 12.4887 4.12492 10.8169 4.12492H7.1829ZM8.99989 21.6249C8.19447 21.6249 7.54156 20.972 7.54156 20.1666V19.2916H10.4582V20.1666C10.4582 20.972 9.80531 21.6249 8.99989 21.6249Z" fill="#9A9A9A"/>
</svg>
