<svg width="28" height="28" viewBox="0 0 28 28" fill="none" xmlns="http://www.w3.org/2000/svg">
<g id="Outline/Status/Lightbulb">
<path id="Icon" fill-rule="evenodd" clip-rule="evenodd" d="M13.9999 4.375C9.94456 4.375 6.70825 7.54514 6.70825 11.3936C6.70825 13.7323 7.666 15.7492 9.37448 17.0054C9.75103 17.2822 10.0732 17.6951 10.1965 18.2189C10.2978 18.6488 10.4137 19.1726 10.5285 19.7278H17.4714C17.5862 19.1726 17.702 18.6488 17.8033 18.2189C17.9267 17.6951 18.2488 17.2822 18.6254 17.0054C20.3338 15.7492 21.2916 13.7323 21.2916 11.3936C21.2916 7.54514 18.0553 4.375 13.9999 4.375ZM17.1368 21.4778H10.8631C10.9919 22.2216 11.0929 22.9261 11.1235 23.4318C11.1558 23.9643 11.5537 24.4415 12.1405 24.5683L12.3691 24.6177C13.443 24.8497 14.5569 24.8497 15.6307 24.6177L15.8593 24.5683C16.4461 24.4415 16.8441 23.9643 16.8763 23.4318C16.9069 22.9261 17.0079 22.2216 17.1368 21.4778ZM4.95825 11.3936C4.95825 6.52302 9.03463 2.625 13.9999 2.625C18.9652 2.625 23.0416 6.52302 23.0416 11.3936C23.0416 14.2214 21.8708 16.7913 19.662 18.4153C19.5612 18.4894 19.5191 18.5673 19.5067 18.6201C19.3686 19.2065 19.2003 19.9826 19.0469 20.7701C18.8337 21.8647 18.6601 22.9264 18.6231 23.5375C18.5414 24.8887 17.5473 25.994 16.2289 26.2788L16.0003 26.3282C14.6829 26.6128 13.317 26.6128 11.9996 26.3282L11.7709 26.2788C10.4526 25.994 9.45849 24.8887 9.37674 23.5375C9.33977 22.9264 9.16616 21.8647 8.95291 20.7701C8.7995 19.9826 8.63127 19.2065 8.49315 18.6201C8.48072 18.5673 8.4386 18.4894 8.33786 18.4153C6.12908 16.7913 4.95825 14.2214 4.95825 11.3936Z" fill="#9A9A9A"/>
</g>
</svg>
