<svg width="28" height="28" viewBox="0 0 28 28" fill="none" xmlns="http://www.w3.org/2000/svg">
<g id="Outline/Status/University">
<path id="Icon" fill-rule="evenodd" clip-rule="evenodd" d="M13.5467 3.85236C13.8308 3.77151 14.1304 3.77144 14.4145 3.85205C15.0183 4.02339 15.6276 4.18232 16.239 4.34177C19.11 5.09055 22.0257 5.85101 24.6198 7.96386L25.8144 8.93685C26.299 9.33151 26.5414 9.9157 26.5416 10.5V18.6667C26.5416 19.1499 26.1498 19.5417 25.6666 19.5417C25.1833 19.5417 24.7916 19.1499 24.7916 18.6667V12.8994L24.6015 13.0546C23.7026 13.7881 22.7648 14.3576 21.8036 14.82C21.8495 14.9263 21.8749 15.0435 21.8749 15.1667V20.1762C21.8749 21.4984 21.0638 22.6852 19.832 23.1654L15.1653 24.9848C14.4158 25.277 13.584 25.277 12.8345 24.9848L8.16787 23.1654C6.93601 22.6852 6.12492 21.4984 6.12492 20.1762V15.1667C6.12492 15.0404 6.15166 14.9204 6.1998 14.812C5.23106 14.3469 4.28593 13.774 3.38004 13.0361L2.18544 12.0631C1.21634 11.2738 1.21583 9.7264 2.18409 8.93628L3.39833 7.94542C5.97368 5.84387 8.86883 5.08795 11.7185 4.3439C12.3312 4.18392 12.9419 4.02449 13.5467 3.85236ZM24.7916 10.5007C24.7915 10.3956 24.7491 10.3262 24.7092 10.2937L23.5146 9.32074C20.9999 7.58332 18.7592 6.81705 15.9131 6.06918C15.2873 5.90473 14.6438 5.73563 13.9812 5.54818C13.3157 5.73698 12.6698 5.90689 12.0419 6.07208C9.21868 6.81482 6.75868 7.462 4.50475 9.30128L3.2905 10.2921C3.25062 10.3247 3.20821 10.3942 3.20825 10.4993C3.20829 10.6044 3.25076 10.6738 3.2906 10.7063L4.4852 11.6792C6.75824 13.5306 9.24068 14.1829 12.0867 14.9308C12.7125 15.0953 13.356 15.2643 14.0186 15.4518C14.6841 15.263 15.3299 15.0931 15.9578 14.9279C18.781 14.1852 21.2412 13.538 23.4951 11.6987L24.7093 10.7078C24.7492 10.6753 24.7915 10.6056 24.7916 10.5007ZM16.2813 16.6561C17.5644 16.3211 18.8567 15.9836 20.1249 15.5221V20.1762C20.1249 20.7772 19.7562 21.3167 19.1963 21.535L14.5296 23.3543C14.189 23.4871 13.8109 23.4871 13.4702 23.3543L8.80353 21.535C8.2436 21.3167 7.87492 20.7772 7.87492 20.1762V15.5122C9.15682 15.9791 10.4634 16.3198 11.7608 16.6582C12.3722 16.8177 12.9816 16.9766 13.5854 17.1479C13.8694 17.2285 14.169 17.2285 14.4531 17.1476C15.0579 16.9755 15.6686 16.816 16.2813 16.6561Z" fill="#9A9A9A"/>
</g>
</svg>
