<svg width="28" height="28" viewBox="0 0 28 28" fill="none" xmlns="http://www.w3.org/2000/svg">
<path fill-rule="evenodd" clip-rule="evenodd" d="M9.04183 8.75008C9.04183 6.01167 11.2618 3.79175 14.0002 3.79175C16.7386 3.79175 18.9585 6.01167 18.9585 8.75008C18.9585 11.4885 16.7386 13.7084 14.0002 13.7084C11.2618 13.7084 9.04183 11.4885 9.04183 8.75008ZM14.0002 5.54175C12.2283 5.54175 10.7918 6.97817 10.7918 8.75008C10.7918 10.522 12.2283 11.9584 14.0002 11.9584C15.7721 11.9584 17.2085 10.522 17.2085 8.75008C17.2085 6.97817 15.7721 5.54175 14.0002 5.54175Z" fill="#9A9A9A"/>
<path fill-rule="evenodd" clip-rule="evenodd" d="M9.3335 17.2084C7.88375 17.2084 6.7085 18.3837 6.7085 19.8334V21.2197C6.7085 21.2409 6.72379 21.2589 6.74463 21.2623C11.5498 22.0468 16.4505 22.0468 21.2557 21.2623C21.2765 21.2589 21.2918 21.2409 21.2918 21.2197V19.8334C21.2918 18.3837 20.1166 17.2084 18.6668 17.2084H18.2692C18.2384 17.2084 18.2078 17.2133 18.1786 17.2228L17.1688 17.5525C15.1099 18.2249 12.8904 18.2249 10.8315 17.5525L9.82171 17.2228C9.79248 17.2133 9.76193 17.2084 9.73118 17.2084H9.3335ZM4.9585 19.8334C4.9585 17.4172 6.91725 15.4584 9.3335 15.4584H9.73118C9.94642 15.4584 10.1603 15.4925 10.3649 15.5593L11.3747 15.889C13.0807 16.446 14.9196 16.446 16.6256 15.889L17.6354 15.5593C17.84 15.4925 18.0539 15.4584 18.2692 15.4584H18.6668C21.0831 15.4584 23.0418 17.4172 23.0418 19.8334V21.2197C23.0418 22.0985 22.405 22.8478 21.5377 22.9894C16.5457 23.8044 11.4546 23.8044 6.46265 22.9894C5.59536 22.8478 4.9585 22.0985 4.9585 21.2197V19.8334Z" fill="#9A9A9A"/>
</svg>
