<svg width="22" height="22" viewBox="0 0 22 22" fill="none" xmlns="http://www.w3.org/2000/svg">
<path fill-rule="evenodd" clip-rule="evenodd" d="M10.9951 0.5C11.5474 0.5 11.9951 0.947715 11.9951 1.5V2.5C11.9951 3.05228 11.5474 3.5 10.9951 3.5C10.4428 3.5 9.99509 3.05228 9.99509 2.5V1.5C9.99509 0.947715 10.4428 0.5 10.9951 0.5Z" fill="#535763"/>
<path fill-rule="evenodd" clip-rule="evenodd" d="M10.9951 18.5C11.5474 18.5 11.9951 18.9477 11.9951 19.5V20.4968C11.9951 21.0491 11.5474 21.4968 10.9951 21.4968C10.4428 21.4968 9.99509 21.0491 9.99509 20.4968V19.5C9.99509 18.9477 10.4428 18.5 10.9951 18.5Z" fill="#535763"/>
<path fill-rule="evenodd" clip-rule="evenodd" d="M0.496704 10.9984C0.496704 10.4461 0.944419 9.99839 1.4967 9.99839H2.4967C3.04899 9.99839 3.4967 10.4461 3.4967 10.9984C3.4967 11.5507 3.04899 11.9984 2.4967 11.9984H1.4967C0.944419 11.9984 0.496704 11.5507 0.496704 10.9984Z" fill="#535763"/>
<path fill-rule="evenodd" clip-rule="evenodd" d="M18.4967 10.9984C18.4967 10.4461 18.9444 9.99839 19.4967 9.99839H20.4935C21.0458 9.99839 21.4935 10.4461 21.4935 10.9984C21.4935 11.5507 21.0458 11.9984 20.4935 11.9984H19.4967C18.9444 11.9984 18.4967 11.5507 18.4967 10.9984Z" fill="#535763"/>
<path fill-rule="evenodd" clip-rule="evenodd" d="M3.57171 18.4219C3.18118 18.0313 3.18118 17.3982 3.57171 17.0077L4.27881 16.3005C4.66934 15.91 5.3025 15.91 5.69303 16.3005C6.08355 16.6911 6.08355 17.3242 5.69303 17.7148L4.98592 18.4219C4.5954 18.8124 3.96223 18.8124 3.57171 18.4219Z" fill="#535763"/>
<path fill-rule="evenodd" clip-rule="evenodd" d="M16.2996 5.69394C15.9091 5.30342 15.9091 4.67025 16.2996 4.27973L17.0045 3.5749C17.395 3.18438 18.0281 3.18438 18.4187 3.5749C18.8092 3.96543 18.8092 4.59859 18.4187 4.98911L17.7138 5.69394C17.3233 6.08447 16.6902 6.08447 16.2996 5.69394Z" fill="#535763"/>
<path fill-rule="evenodd" clip-rule="evenodd" d="M3.57171 3.5749C3.96223 3.18438 4.5954 3.18438 4.98592 3.5749L5.69303 4.28201C6.08355 4.67253 6.08355 5.3057 5.69303 5.69622C5.3025 6.08675 4.66934 6.08675 4.27881 5.69622L3.57171 4.98911C3.18118 4.59859 3.18118 3.96543 3.57171 3.5749Z" fill="#535763"/>
<path fill-rule="evenodd" clip-rule="evenodd" d="M16.2996 16.3028C16.6902 15.9123 17.3233 15.9123 17.7138 16.3028L18.4187 17.0077C18.8092 17.3982 18.8092 18.0313 18.4187 18.4219C18.0281 18.8124 17.395 18.8124 17.0045 18.4219L16.2996 17.717C15.9091 17.3265 15.9091 16.6933 16.2996 16.3028Z" fill="#535763"/>
</svg>
